<svg xmlns="http://www.w3.org/2000/svg" width="2500.35" height="1388.451" viewBox="0 0 2500.35 1388.451">
  <g id="组_5059" data-name="组 5059" transform="translate(4827.456 -4330.661)">
    <rect id="矩形_21" data-name="矩形 21" width="1440" height="473" transform="translate(-4284 4788.326)" fill="#70b300"/>
    <path id="blob" d="M1332.865,147.726c175.6,72.146,331.951,144.051,345.876,218.712,15.209,74.678-109.43,152.6-284.465,207.178S995.094,659.45,831.747,635.6s-264.609-102.784-425.9-161.579C244.551,414.773,24.524,376.589,5.941,334.571c-17.305-42.456,166.849-87.838,326.28-156.239C491.66,110.385,625.093,19.4,791.819,11.047,957.255,2.22,1155.971,75.11,1332.865,147.726Z" transform="matrix(-0.996, 0.087, -0.087, -0.996, -2691.107, 5519.646)" fill="#70b300"/>
    <path id="blob_1_" data-name="blob (1)" d="M538.43,119.217C346.217,175.79,103.141,238.236,25.063,334.114-51.744,429.986,37.721,558.722,229.2,626.283S712.918,700.238,964.635,681c251.714-18.678,462.919-63.551,613.272-132.833,149.086-69.836,236.046-163.512,232.768-254.488-4.545-91.531-99.328-180.361-248.955-234.652C1413.367,4.166,1211.437-15.6,1041.076-1.264,869.44,13.642,730.639,63.206,538.43,119.217Z" transform="translate(-4296.354 4385.674) rotate(2)" fill="#70b300" opacity="0.996"/>
    <path id="blob_1_2" data-name="blob (1)" d="M541.1,175.258C353.223,241.348,115.145,313.12,42.718,434.573-28.448,556.067,67.273,726.554,261.048,821.54S745.392,935.969,994.357,920.6c248.992-14.64,456.355-64.821,601.981-149,144.338-84.948,225.7-203.205,217.595-321.4-9.4-118.963-108.27-237.863-259.768-314.03C1403.9,59.314,1202.3,25.959,1033.872,38.068,864.208,50.866,729,109.9,541.1,175.258Z" transform="matrix(0.974, -0.225, 0.225, 0.974, -4303.239, 4704.101)" fill="#70b300" opacity="0.996"/>
    <path id="blob_1_3" data-name="blob (1)" d="M539.241,121.9C347.321,177.5,104.562,238.713,27.032,334.182c-76.259,95.468,13.981,224.632,205.9,293.144s484.247,76.375,735.9,58.4c251.656-17.409,462.64-61.212,612.617-129.725,148.706-69.074,235.133-162.3,231.32-253.272C1807.688,211.2,1712.365,121.9,1562.388,66.87c-148.706-55.6-350.793-76.375-521.106-62.9C869.7,18.012,731.16,66.87,539.241,121.9Z" transform="translate(-4713.058 4514.375)" fill="#70b300" opacity="0.996"/>
    <path id="blob_1_4" data-name="blob (1)" d="M403.248,505.088C251.93,461.736,60.048,415.3,2.766,330.5-53.494,245.647,25.839,122.9,183.7,51.875S576.915-38.408,778.226-32.186c201.341,5.7,368.6,37.405,485.53,94.385,115.877,57.549,180.427,139.912,172.569,223.913-8.909,84.57-90.227,170.778-213.665,227.66-122.446,57.348-285.96,84.8-422.131,79.376C663.366,587.259,554.6,547.923,403.248,505.088Z" transform="translate(-3482.655 5682.527) rotate(-158)" fill="#70b300" opacity="0.996"/>
  </g>
</svg>
