<svg xmlns="http://www.w3.org/2000/svg" xmlns:xlink="http://www.w3.org/1999/xlink" width="133.339" height="40" viewBox="0 0 133.339 40">
  <defs>
    <linearGradient id="linear-gradient" x1="0.908" y1="6.632" x2="-0.383" y2="5.96" gradientUnits="objectBoundingBox">
      <stop offset="0" stop-color="#00a0ff"/>
      <stop offset="0.007" stop-color="#00a1ff"/>
      <stop offset="0.26" stop-color="#00beff"/>
      <stop offset="0.512" stop-color="#00d2ff"/>
      <stop offset="0.76" stop-color="#00dfff"/>
      <stop offset="1" stop-color="#00e3ff"/>
    </linearGradient>
    <linearGradient id="linear-gradient-2" x1="1.077" y1="17.2" x2="-1.307" y2="17.2" gradientUnits="objectBoundingBox">
      <stop offset="0" stop-color="#ffe000"/>
      <stop offset="0.409" stop-color="#ffbd00"/>
      <stop offset="0.775" stop-color="orange"/>
      <stop offset="1" stop-color="#ff9c00"/>
    </linearGradient>
    <linearGradient id="linear-gradient-3" x1="0.864" y1="10.839" x2="-0.499" y2="9.074" gradientUnits="objectBoundingBox">
      <stop offset="0" stop-color="#ff3a44"/>
      <stop offset="1" stop-color="#c31162"/>
    </linearGradient>
    <linearGradient id="linear-gradient-4" x1="-0.186" y1="13.614" x2="0.423" y2="12.822" gradientUnits="objectBoundingBox">
      <stop offset="0" stop-color="#32a071"/>
      <stop offset="0.068" stop-color="#2da771"/>
      <stop offset="0.476" stop-color="#15cf74"/>
      <stop offset="0.801" stop-color="#06e775"/>
      <stop offset="1" stop-color="#00f076"/>
    </linearGradient>
  </defs>
  <g id="btn_google" transform="translate(0 0)">
    <g id="组_2" data-name="组 2" transform="translate(0 0)">
      <path id="路径_6" data-name="路径 6" d="M128.4,40H4.938A4.921,4.921,0,0,1,0,35V5A4.921,4.921,0,0,1,4.938,0H128.4a4.921,4.921,0,0,1,4.938,5V35a4.921,4.921,0,0,1-4.938,5Z" transform="translate(0.001 0)"/>
    </g>
    <g id="组_3" data-name="组 3" transform="translate(0 0)">
      <path id="路径_7" data-name="路径 7" d="M128.4.8A4.2,4.2,0,0,1,132.543,5V35a4.2,4.2,0,0,1-4.148,4.2H4.938A4.2,4.2,0,0,1,.79,35V5A4.2,4.2,0,0,1,4.938.8H128.4m0-.8H4.938A4.984,4.984,0,0,0,0,5V35a4.921,4.921,0,0,0,4.938,5H128.4a4.921,4.921,0,0,0,4.938-5V5A4.984,4.984,0,0,0,128.4,0Z" transform="translate(0.001)" fill="#a6a6a6"/>
    </g>
    <g id="组_4" data-name="组 4" transform="translate(40.683 6.9)">
      <path id="路径_8" data-name="路径 8" d="M47.4,10.2a2.724,2.724,0,0,1-.7,2,3.111,3.111,0,1,1-2.2-5.3,2.663,2.663,0,0,1,1.2.3,2.178,2.178,0,0,1,.9.7l-.5.5a1.865,1.865,0,0,0-1.6-.7,1.99,1.99,0,0,0-1.6.7,2.06,2.06,0,0,0-.7,1.7,2.06,2.06,0,0,0,.7,1.7,2.575,2.575,0,0,0,1.6.7,2.193,2.193,0,0,0,1.7-.7,1.656,1.656,0,0,0,.5-1.2H44.5V9.8h2.9Z" transform="translate(-41.4 -6.9)" fill="#fff" stroke="#fff" stroke-miterlimit="10" stroke-width="0.2"/>
      <path id="路径_9" data-name="路径 9" d="M52,7.7H49.3V9.6h2.5v.7H49.3v1.9H52V13H48.5V7H52Z" transform="translate(-41.4 -6.9)" fill="#fff" stroke="#fff" stroke-miterlimit="10" stroke-width="0.2"/>
      <path id="路径_10" data-name="路径 10" d="M55.3,13h-.8V7.7H52.8V7H57v.7H55.3Z" transform="translate(-41.4 -6.9)" fill="#fff" stroke="#fff" stroke-miterlimit="10" stroke-width="0.2"/>
      <path id="路径_11" data-name="路径 11" d="M59.9,13V7h.8v6Z" transform="translate(-41.4 -6.9)" fill="#fff" stroke="#fff" stroke-miterlimit="10" stroke-width="0.2"/>
      <path id="路径_12" data-name="路径 12" d="M64.1,13h-.8V7.7H61.6V7h4.1v.7H64V13Z" transform="translate(-41.4 -6.9)" fill="#fff" stroke="#fff" stroke-miterlimit="10" stroke-width="0.2"/>
      <path id="路径_13" data-name="路径 13" d="M73.6,12.2a3.111,3.111,0,1,1,.9-2.2,2.94,2.94,0,0,1-.9,2.2Zm-3.8-.5a2.36,2.36,0,0,0,1.6.7,1.99,1.99,0,0,0,1.6-.7,2.413,2.413,0,0,0,.7-1.7A2.06,2.06,0,0,0,73,8.3a2.36,2.36,0,0,0-1.6-.7,1.99,1.99,0,0,0-1.6.7,2.413,2.413,0,0,0-.7,1.7,2.06,2.06,0,0,0,.7,1.7Z" transform="translate(-41.4 -6.9)" fill="#fff" stroke="#fff" stroke-miterlimit="10" stroke-width="0.2"/>
      <path id="路径_14" data-name="路径 14" d="M75.6,13V7h.9l2.9,4.7h0V7h.8v6h-.8L76.3,8.1h0V13Z" transform="translate(-41.4 -6.9)" fill="#fff" stroke="#fff" stroke-miterlimit="10" stroke-width="0.2"/>
    </g>
    <path id="路径_15" data-name="路径 15" d="M68.1,21.8a4.207,4.207,0,0,0-4.3,4.3,4.268,4.268,0,0,0,4.3,4.3,4.207,4.207,0,0,0,4.3-4.3,4.149,4.149,0,0,0-4.3-4.3Zm0,6.8a2.608,2.608,0,0,1,0-5.2A2.422,2.422,0,0,1,70.5,26a2.482,2.482,0,0,1-2.4,2.6Zm-9.3-6.8a4.207,4.207,0,0,0-4.3,4.3,4.268,4.268,0,0,0,4.3,4.3,4.207,4.207,0,0,0,4.3-4.3,4.149,4.149,0,0,0-4.3-4.3Zm0,6.8a2.608,2.608,0,0,1,0-5.2A2.422,2.422,0,0,1,61.2,26a2.482,2.482,0,0,1-2.4,2.6ZM47.7,23.1v1.8H52a3.781,3.781,0,0,1-1,2.3,4.426,4.426,0,0,1-3.3,1.3A4.656,4.656,0,0,1,43,23.7a4.717,4.717,0,0,1,4.7-4.8A4.958,4.958,0,0,1,51,20.2l1.3-1.3a6.408,6.408,0,0,0-4.5-1.8,6.746,6.746,0,0,0-6.7,6.6,6.746,6.746,0,0,0,6.7,6.6,5.755,5.755,0,0,0,4.6-1.9A6.02,6.02,0,0,0,54,24.2a3.75,3.75,0,0,0-.1-1.1Zm45.4,1.4a3.885,3.885,0,0,0-3.6-2.7,4.028,4.028,0,0,0-4,4.3,4.185,4.185,0,0,0,4.2,4.3,4.1,4.1,0,0,0,3.5-1.9l-1.4-1a2.438,2.438,0,0,1-2.1,1.2,2.17,2.17,0,0,1-2.1-1.3L93.3,25Zm-5.8,1.4a2.429,2.429,0,0,1,2.2-2.5,1.769,1.769,0,0,1,1.6.9ZM82.6,30h1.9V17.5H82.6Zm-3-7.3h0a3.293,3.293,0,0,0-2.3-1A4.3,4.3,0,0,0,73.2,26a4.141,4.141,0,0,0,4.1,4.2,2.871,2.871,0,0,0,2.2-1h.1v.6a2.273,2.273,0,0,1-4.4,1l-1.6.7A4.125,4.125,0,0,0,77.4,34c2.2,0,4-1.3,4-4.4V22H79.6Zm-2.2,5.9a2.608,2.608,0,0,1,0-5.2A2.406,2.406,0,0,1,79.7,26a2.406,2.406,0,0,1-2.3,2.6Zm24.4-11.1H97.3V30h1.9V25.3h2.6a3.9,3.9,0,1,0,0-7.8Zm.1,6H99.2V19.2h2.7a2.2,2.2,0,0,1,2.2,2.1,2.289,2.289,0,0,1-2.2,2.2Zm11.5-1.8a3.361,3.361,0,0,0-3.3,1.9l1.7.7a1.766,1.766,0,0,1,1.7-.9,1.879,1.879,0,0,1,2,1.6v.1a3.966,3.966,0,0,0-1.9-.5c-1.8,0-3.6,1-3.6,2.8a2.93,2.93,0,0,0,3.1,2.8,2.814,2.814,0,0,0,2.4-1.2h.1v1h1.8V25.2a3.785,3.785,0,0,0-4-3.5Zm-.2,6.9c-.6,0-1.5-.3-1.5-1.1,0-1,1.1-1.3,2-1.3a3.867,3.867,0,0,1,1.7.4,2.329,2.329,0,0,1-2.2,2ZM123.7,22l-2.1,5.4h-.1L119.3,22h-2l3.3,7.6-1.9,4.2h1.9L125.7,22Zm-16.8,8h1.9V17.5h-1.9Z" transform="translate(-1.666 -0.131)" fill="#fff"/>
    <g id="组_6" data-name="组 6" transform="translate(9.99 7.147)">
      <path id="路径_16" data-name="路径 16" d="M10.4,7.5A1.955,1.955,0,0,0,10,8.9V31a1.978,1.978,0,0,0,.5,1.4l.1.1L23,20.1v-.2Z" transform="translate(-9.99 -7.147)" fill="url(#linear-gradient)"/>
      <path id="路径_17" data-name="路径 17" d="M27,24.3l-4.1-4.1v-.3L27,15.8l.1.1L32,18.7c1.4.8,1.4,2.1,0,2.9l-5,2.7Z" transform="translate(-9.99 -7.147)" fill="url(#linear-gradient-2)"/>
      <path id="路径_18" data-name="路径 18" d="M27.1,24.2,22.9,20,10.4,32.5c.5.5,1.2.5,2.1.1l14.6-8.4" transform="translate(-9.99 -7.147)" fill="url(#linear-gradient-3)"/>
      <path id="路径_19" data-name="路径 19" d="M27.1,15.8,12.5,7.5a1.621,1.621,0,0,0-2.1.1L22.9,20Z" transform="translate(-9.99 -7.147)" fill="url(#linear-gradient-4)"/>
      <g id="组_5" data-name="组 5" transform="translate(0 16.953)">
        <path id="路径_20" data-name="路径 20" d="M27,24.1,12.5,32.3a1.635,1.635,0,0,1-2,0h0l-.1.1h0l.1.1h0a1.635,1.635,0,0,0,2,0Z" transform="translate(-9.99 -24.1)" opacity="0.2"/>
        <path id="路径_21" data-name="路径 21" d="M10.4,32.3a1.955,1.955,0,0,1-.4-1.4V31a1.978,1.978,0,0,0,.5,1.4v-.1Z" transform="translate(-9.99 -24.1)" opacity="0.12"/>
      </g>
      <path id="路径_22" data-name="路径 22" d="M32,21.3l-5,2.8.1.1L32,21.4A1.662,1.662,0,0,0,33,20h0C33,20.5,32.6,20.9,32,21.3Z" transform="translate(-9.99 -7.147)" opacity="0.12"/>
      <path id="路径_23" data-name="路径 23" d="M12.5,7.6,32,18.7c.6.4,1,.8,1,1.3h0a1.662,1.662,0,0,0-1-1.4L12.5,7.5C11.1,6.7,10,7.3,10,8.9V9C10,7.5,11.1,6.8,12.5,7.6Z" transform="translate(-9.99 -7.147)" fill="#fff" opacity="0.25"/>
    </g>
  </g>
</svg>
