<svg xmlns="http://www.w3.org/2000/svg" width="133.334" height="40" viewBox="0 0 133.334 40">
  <g id="btn_ios" transform="translate(0 0)">
    <path id="路径_24" data-name="路径 24" d="M128.59,40H4.671A4.711,4.711,0,0,1,0,35.267V4.726A4.7,4.7,0,0,1,4.671,0H128.59a4.767,4.767,0,0,1,4.744,4.726V35.267A4.774,4.774,0,0,1,128.59,40Z" transform="translate(0)" fill="#a6a6a6"/>
    <path id="路径_25" data-name="路径 25" d="M132.365,35.268a3.806,3.806,0,0,1-3.786,3.83H4.681A3.811,3.811,0,0,1,.89,35.268V4.725A3.816,3.816,0,0,1,4.681.89h123.9a3.81,3.81,0,0,1,3.786,3.835V35.268Z" transform="translate(0)"/>
    <g id="组_7" data-name="组 7" transform="translate(12.791 6.217)">
      <path id="路径_26" data-name="路径 26" d="M30.128,19.784a5.8,5.8,0,0,1,2.761-4.864,5.937,5.937,0,0,0-4.676-2.528c-1.967-.207-3.875,1.177-4.877,1.177-1.022,0-2.565-1.157-4.228-1.123a6.225,6.225,0,0,0-5.24,3.2c-2.268,3.919-.576,9.684,1.6,12.854,1.086,1.553,2.355,3.287,4.016,3.226,1.625-.067,2.232-1.036,4.193-1.036,1.943,0,2.513,1.036,4.207,1,1.744-.028,2.842-1.56,3.89-3.127a12.833,12.833,0,0,0,1.779-3.623,5.6,5.6,0,0,1-3.42-5.156Z" transform="translate(-12.791 -6.217)" fill="#fff"/>
      <path id="路径_27" data-name="路径 27" d="M26.928,10.306a5.706,5.706,0,0,0,1.306-4.089,5.812,5.812,0,0,0-3.758,1.944,5.43,5.43,0,0,0-1.34,3.938,4.8,4.8,0,0,0,3.792-1.793Z" transform="translate(-12.791 -6.217)" fill="#fff"/>
    </g>
    <g id="组_8" data-name="组 8" transform="translate(40.743 17.994)">
      <path id="路径_28" data-name="路径 28" d="M53.645,31.5H51.374L50.13,27.595H45.806L44.621,31.5H42.41l4.284-13.3H49.34Zm-3.89-5.549L48.63,22.48q-.178-.533-.671-2.507h-.04q-.2.849-.632,2.507l-1.1,3.475Z" transform="translate(-42.41 -17.994)" fill="#fff"/>
      <path id="路径_29" data-name="路径 29" d="M64.662,26.588a5.453,5.453,0,0,1-1.323,3.869A3.868,3.868,0,0,1,60.4,31.721a2.942,2.942,0,0,1-2.725-1.362h-.04v5.055H55.5V25.067q0-1.539-.079-3.159H57.3l.119,1.521h.04a3.793,3.793,0,0,1,6.071-.376A5.287,5.287,0,0,1,64.662,26.588Zm-2.172.078a3.951,3.951,0,0,0-.632-2.31A2.183,2.183,0,0,0,60,23.408a2.217,2.217,0,0,0-1.431.523A2.426,2.426,0,0,0,57.73,25.3a2.791,2.791,0,0,0-.1.65v1.6a2.564,2.564,0,0,0,.642,1.768,2.128,2.128,0,0,0,1.668.721,2.183,2.183,0,0,0,1.875-.928,4.084,4.084,0,0,0,.675-2.449Z" transform="translate(-42.41 -17.994)" fill="#fff"/>
      <path id="路径_30" data-name="路径 30" d="M75.7,26.588a5.449,5.449,0,0,1-1.324,3.869,3.865,3.865,0,0,1-2.941,1.264,2.939,2.939,0,0,1-2.724-1.362h-.04v5.055H66.538V25.067q0-1.539-.079-3.159h1.875l.119,1.521h.04a3.794,3.794,0,0,1,6.072-.376A5.3,5.3,0,0,1,75.7,26.588Zm-2.172.078a3.951,3.951,0,0,0-.633-2.31,2.18,2.18,0,0,0-1.855-.948,2.22,2.22,0,0,0-1.432.523A2.424,2.424,0,0,0,68.77,25.3a2.846,2.846,0,0,0-.1.65v1.6a2.572,2.572,0,0,0,.64,1.768,2.132,2.132,0,0,0,1.67.721,2.183,2.183,0,0,0,1.875-.928,4.084,4.084,0,0,0,.672-2.449Z" transform="translate(-42.41 -17.994)" fill="#fff"/>
      <path id="路径_31" data-name="路径 31" d="M88.039,27.772a3.547,3.547,0,0,1-1.182,2.764A5.239,5.239,0,0,1,83.232,31.7a6.345,6.345,0,0,1-3.449-.829l.494-1.777a5.844,5.844,0,0,0,3.082.85,2.914,2.914,0,0,0,1.877-.544,1.776,1.776,0,0,0,.67-1.454,1.854,1.854,0,0,0-.553-1.364,5.141,5.141,0,0,0-1.836-1.029q-3.5-1.3-3.494-3.816a3.377,3.377,0,0,1,1.225-2.689A4.829,4.829,0,0,1,84.506,18a6.459,6.459,0,0,1,3.02.632l-.533,1.738a5.24,5.24,0,0,0-2.547-.612,2.578,2.578,0,0,0-1.756.553,1.58,1.58,0,0,0-.533,1.2,1.627,1.627,0,0,0,.611,1.3A6.905,6.905,0,0,0,84.7,23.847a6.568,6.568,0,0,1,2.527,1.618,3.38,3.38,0,0,1,.812,2.307Z" transform="translate(-42.41 -17.994)" fill="#fff"/>
      <path id="路径_32" data-name="路径 32" d="M95.088,23.508h-2.35v4.659q0,1.777,1.244,1.777a3.792,3.792,0,0,0,.947-.1l.059,1.619a4.831,4.831,0,0,1-1.658.236,2.558,2.558,0,0,1-1.975-.77,3.783,3.783,0,0,1-.711-2.587V23.506h-1.4v-1.6h1.4V20.149l2.094-.632v2.389h2.35v1.6Z" transform="translate(-42.41 -17.994)" fill="#fff"/>
      <path id="路径_33" data-name="路径 33" d="M105.691,26.627a5.264,5.264,0,0,1-1.264,3.633,4.513,4.513,0,0,1-3.516,1.461,4.291,4.291,0,0,1-3.365-1.4,5.1,5.1,0,0,1-1.254-3.534,5.212,5.212,0,0,1,1.293-3.652,4.475,4.475,0,0,1,3.484-1.422,4.382,4.382,0,0,1,3.4,1.4,5.044,5.044,0,0,1,1.222,3.514Zm-2.212.069a4.316,4.316,0,0,0-.572-2.277,2.106,2.106,0,0,0-1.914-1.148,2.138,2.138,0,0,0-1.955,1.148,4.4,4.4,0,0,0-.572,2.317,4.31,4.31,0,0,0,.572,2.276,2.179,2.179,0,0,0,3.85-.02,4.332,4.332,0,0,0,.591-2.292Z" transform="translate(-42.41 -17.994)" fill="#fff"/>
      <path id="路径_34" data-name="路径 34" d="M112.621,23.783a3.7,3.7,0,0,0-.672-.059,2.014,2.014,0,0,0-1.738.85,3.2,3.2,0,0,0-.533,1.9V31.5h-2.131l.02-6.574q0-1.659-.08-3.021h1.857l.078,1.836h.059a3.282,3.282,0,0,1,1.066-1.52,2.578,2.578,0,0,1,1.541-.514,3.423,3.423,0,0,1,.533.039v2.033Z" transform="translate(-42.41 -17.994)" fill="#fff"/>
      <path id="路径_35" data-name="路径 35" d="M122.156,26.252a5,5,0,0,1-.078.967h-6.4a2.784,2.784,0,0,0,.928,2.173,3.168,3.168,0,0,0,2.092.671,7.074,7.074,0,0,0,2.588-.454l.334,1.48a8,8,0,0,1-3.217.593,4.66,4.66,0,0,1-3.506-1.313,4.849,4.849,0,0,1-1.273-3.524,5.5,5.5,0,0,1,1.186-3.613,4.086,4.086,0,0,1,3.355-1.539,3.576,3.576,0,0,1,3.141,1.539,5.19,5.19,0,0,1,.85,3.02Zm-2.033-.553a2.9,2.9,0,0,0-.414-1.639,1.862,1.862,0,0,0-1.7-.889,2.023,2.023,0,0,0-1.7.869,3.181,3.181,0,0,0-.631,1.658h4.441Z" transform="translate(-42.41 -17.994)" fill="#fff"/>
    </g>
    <g id="组_9" data-name="组 9" transform="translate(42.009 6.556)">
      <path id="路径_36" data-name="路径 36" d="M49.05,10.009a3.283,3.283,0,0,1-1.058,2.658,4.208,4.208,0,0,1-2.783.824,12.9,12.9,0,0,1-1.533-.078V6.982a11.313,11.313,0,0,1,1.805-.136,3.891,3.891,0,0,1,2.59.747,3.019,3.019,0,0,1,.979,2.416Zm-1.1.029a2.39,2.39,0,0,0-.606-1.756,2.389,2.389,0,0,0-1.771-.611,4.435,4.435,0,0,0-.844.068v4.889a5.533,5.533,0,0,0,.708.029,2.479,2.479,0,0,0,1.857-.669,2.679,2.679,0,0,0,.656-1.95Z" transform="translate(-43.676 -6.556)" fill="#fff"/>
      <path id="路径_37" data-name="路径 37" d="M54.909,11.037a2.586,2.586,0,0,1-.621,1.785,2.216,2.216,0,0,1-1.727.718,2.107,2.107,0,0,1-1.654-.689,2.509,2.509,0,0,1-.615-1.736,2.561,2.561,0,0,1,.635-1.794,2.2,2.2,0,0,1,1.712-.7,2.156,2.156,0,0,1,1.669.688A2.489,2.489,0,0,1,54.909,11.037Zm-1.087.034a2.132,2.132,0,0,0-.281-1.119,1.035,1.035,0,0,0-.94-.564,1.051,1.051,0,0,0-.961.564,2.161,2.161,0,0,0-.281,1.138,2.132,2.132,0,0,0,.281,1.119,1.058,1.058,0,0,0,.951.564,1.046,1.046,0,0,0,.94-.574,2.119,2.119,0,0,0,.291-1.128Z" transform="translate(-43.676 -6.556)" fill="#fff"/>
      <path id="路径_38" data-name="路径 38" d="M62.765,8.719,61.29,13.433h-.96l-.611-2.047a15.322,15.322,0,0,1-.379-1.523h-.019a11.15,11.15,0,0,1-.379,1.523l-.649,2.047h-.971L55.935,8.719h1.077l.533,2.241q.193.795.32,1.513h.019q.117-.591.389-1.5l.669-2.25H59.8l.641,2.2q.232.805.378,1.552h.029a14.831,14.831,0,0,1,.32-1.552l.572-2.2h1.029Z" transform="translate(-43.676 -6.556)" fill="#fff"/>
      <path id="路径_39" data-name="路径 39" d="M68.2,13.433H67.15v-2.7q0-1.248-.95-1.248a.946.946,0,0,0-.757.343,1.217,1.217,0,0,0-.291.808v2.8H64.1v-3.37q0-.621-.038-1.349h.921l.049.737h.029a1.514,1.514,0,0,1,.543-.569,1.771,1.771,0,0,1,.95-.265,1.5,1.5,0,0,1,1.1.427,2.075,2.075,0,0,1,.543,1.562Z" transform="translate(-43.676 -6.556)" fill="#fff"/>
      <path id="路径_40" data-name="路径 40" d="M71.088,13.433H70.041V6.556h1.047Z" transform="translate(-43.676 -6.556)" fill="#fff"/>
      <path id="路径_41" data-name="路径 41" d="M77.258,11.037a2.586,2.586,0,0,1-.621,1.785,2.218,2.218,0,0,1-1.727.718,2.1,2.1,0,0,1-1.654-.689,2.509,2.509,0,0,1-.615-1.736,2.561,2.561,0,0,1,.635-1.794,2.2,2.2,0,0,1,1.711-.7,2.158,2.158,0,0,1,1.67.688A2.489,2.489,0,0,1,77.258,11.037Zm-1.088.034a2.132,2.132,0,0,0-.281-1.119,1.033,1.033,0,0,0-.939-.564,1.049,1.049,0,0,0-.961.564,2.161,2.161,0,0,0-.281,1.138,2.132,2.132,0,0,0,.281,1.119,1.058,1.058,0,0,0,.951.564,1.044,1.044,0,0,0,.939-.574,2.11,2.11,0,0,0,.291-1.128Z" transform="translate(-43.676 -6.556)" fill="#fff"/>
      <path id="路径_42" data-name="路径 42" d="M82.33,13.433h-.941l-.078-.543h-.029a1.614,1.614,0,0,1-1.377.65,1.421,1.421,0,0,1-1.076-.427,1.339,1.339,0,0,1-.369-.96,1.465,1.465,0,0,1,.723-1.319,3.752,3.752,0,0,1,2.033-.446V10.3q0-.932-.979-.931a2.192,2.192,0,0,0-1.229.349L78.8,9.03a3.023,3.023,0,0,1,1.617-.407q1.848,0,1.85,1.95v1.736a7.364,7.364,0,0,0,.063,1.124Zm-1.088-1.62v-.727q-1.734-.03-1.734.95a.71.71,0,0,0,.2.553.733.733,0,0,0,.512.184,1.058,1.058,0,0,0,.641-.218.9.9,0,0,0,.38-.742Z" transform="translate(-43.676 -6.556)" fill="#fff"/>
      <path id="路径_43" data-name="路径 43" d="M88.285,13.433h-.93l-.049-.757h-.029a1.567,1.567,0,0,1-1.514.864,1.774,1.774,0,0,1-1.416-.669,2.606,2.606,0,0,1-.562-1.736A2.733,2.733,0,0,1,84.4,9.282a1.879,1.879,0,0,1,1.455-.66,1.413,1.413,0,0,1,1.328.64h.02V6.556h1.049v5.607Q88.248,12.851,88.285,13.433ZM87.2,11.445v-.786a1.543,1.543,0,0,0-.029-.33,1.194,1.194,0,0,0-.379-.635,1.03,1.03,0,0,0-.7-.257,1.075,1.075,0,0,0-.922.466,2,2,0,0,0-.336,1.193,1.862,1.862,0,0,0,.322,1.135,1.079,1.079,0,0,0,.916.465,1.01,1.01,0,0,0,.828-.388A1.292,1.292,0,0,0,87.2,11.445Z" transform="translate(-43.676 -6.556)" fill="#fff"/>
      <path id="路径_44" data-name="路径 44" d="M97.248,11.037a2.586,2.586,0,0,1-.621,1.785,2.215,2.215,0,0,1-1.727.718,2.11,2.11,0,0,1-1.654-.689,2.509,2.509,0,0,1-.615-1.736,2.56,2.56,0,0,1,.635-1.794,2.2,2.2,0,0,1,1.713-.7,2.154,2.154,0,0,1,1.668.688,2.489,2.489,0,0,1,.6,1.728Zm-1.086.034a2.132,2.132,0,0,0-.281-1.119,1.036,1.036,0,0,0-.941-.564,1.053,1.053,0,0,0-.961.564A2.161,2.161,0,0,0,93.7,11.09a2.132,2.132,0,0,0,.281,1.119,1.071,1.071,0,0,0,1.892-.01,2.128,2.128,0,0,0,.289-1.128Z" transform="translate(-43.676 -6.556)" fill="#fff"/>
      <path id="路径_45" data-name="路径 45" d="M102.883,13.433h-1.047v-2.7q0-1.248-.951-1.248a.942.942,0,0,0-.756.343,1.212,1.212,0,0,0-.291.808v2.8H98.789v-3.37q0-.621-.037-1.349h.92l.049.737h.029a1.53,1.53,0,0,1,.543-.569,1.775,1.775,0,0,1,.951-.265,1.5,1.5,0,0,1,1.1.427,2.071,2.071,0,0,1,.543,1.562Z" transform="translate(-43.676 -6.556)" fill="#fff"/>
      <path id="路径_46" data-name="路径 46" d="M109.936,9.5h-1.154v2.29c0,.582.205.873.611.873a1.846,1.846,0,0,0,.467-.049l.027.795a2.355,2.355,0,0,1-.814.117,1.253,1.253,0,0,1-.969-.378,1.849,1.849,0,0,1-.35-1.271V9.5h-.689V8.719h.689V7.855l1.027-.31V8.718h1.154V9.5Z" transform="translate(-43.676 -6.556)" fill="#fff"/>
      <path id="路径_47" data-name="路径 47" d="M115.484,13.433h-1.049v-2.68q0-1.268-.949-1.268a1,1,0,0,0-1,.735,1.317,1.317,0,0,0-.049.377v2.835H111.39V6.556h1.047V9.4h.02a1.584,1.584,0,0,1,1.416-.775,1.461,1.461,0,0,1,1.078.427,2.147,2.147,0,0,1,.533,1.581v2.8Z" transform="translate(-43.676 -6.556)" fill="#fff"/>
      <path id="路径_48" data-name="路径 48" d="M121.207,10.853a2.529,2.529,0,0,1-.039.475h-3.143a1.374,1.374,0,0,0,.455,1.067,1.561,1.561,0,0,0,1.029.33,3.472,3.472,0,0,0,1.271-.223l.164.728a3.947,3.947,0,0,1-1.582.291,2.285,2.285,0,0,1-1.721-.645,2.376,2.376,0,0,1-.625-1.731A2.7,2.7,0,0,1,117.6,9.37a2,2,0,0,1,1.648-.756,1.753,1.753,0,0,1,1.541.756,2.517,2.517,0,0,1,.418,1.483Zm-1-.271a1.411,1.411,0,0,0-.2-.805.915.915,0,0,0-.834-.437,1,1,0,0,0-.834.427,1.586,1.586,0,0,0-.311.815Z" transform="translate(-43.676 -6.556)" fill="#fff"/>
    </g>
  </g>
</svg>
