<svg xmlns="http://www.w3.org/2000/svg" xmlns:xlink="http://www.w3.org/1999/xlink" width="203.436" height="270.824" viewBox="0 0 203.436 270.824">
  <defs>
    <filter id="gavin-hang-aSphSCsE5kg-unsplash" x="0" y="0" width="203.436" height="270.824" filterUnits="userSpaceOnUse">
      <feOffset input="SourceAlpha"/>
      <feGaussianBlur stdDeviation="5" result="blur"/>
      <feFlood flood-color="#fff"/>
      <feComposite operator="in" in2="blur"/>
      <feComposite in="SourceGraphic"/>
    </filter>
  </defs>
  <g transform="matrix(1, 0, 0, 1, 0, 0)" filter="url(#gavin-hang-aSphSCsE5kg-unsplash)">
    <g id="gavin-hang-aSphSCsE5kg-unsplash-2" data-name="gavin-hang-aSphSCsE5kg-unsplash" transform="translate(15 15)" fill="none">
      <path d="M15,0H173.364C177.543,0,0,247,0,240.706V15A15,15,0,0,1,15,0Z" stroke="none"/>
      <path d="M 14.99998474121094 2.000015258789062 C 11.52754211425781 2.000015258789062 8.262985229492188 3.352249145507812 5.807586669921875 5.807601928710938 C 3.352218627929688 8.262969970703125 1.999984741210938 11.52757263183594 1.999984741210938 15.00001525878906 L 1.999984741210938 235.9602203369141 C 3.404891967773438 234.2751312255859 5.48468017578125 231.6907196044922 8.558441162109375 227.7280426025391 C 13.60691833496094 221.2196044921875 20.47361755371094 212.115966796875 28.96781921386719 200.6700744628906 C 44.70175170898438 179.4685668945312 65.39914703369141 151.0646057128906 87.24727630615234 120.6904449462891 C 108.9111480712891 90.57247924804688 129.2539367675781 61.929443359375 144.5283203125 40.03770446777344 C 152.6650085449219 28.37591552734375 159.1125183105469 18.9891357421875 163.691650390625 12.13816833496094 C 167.2423400878906 6.825897216796875 169.1807250976562 3.76312255859375 170.2384338378906 2.000015258789062 L 14.99998474121094 2.000015258789062 M 14.99998474121094 1.52587890625e-05 L 173.3637390136719 1.52587890625e-05 C 177.4900817871094 1.52587890625e-05 4.4564208984375 240.8244476318359 0.083465576171875 240.8244476318359 C 0.0275115966796875 240.8244476318359 -1.52587890625e-05 240.7857818603516 -1.52587890625e-05 240.7063140869141 L -1.52587890625e-05 15.00001525878906 C -1.52587890625e-05 6.715713500976562 6.715713500976562 1.52587890625e-05 14.99998474121094 1.52587890625e-05 Z" stroke="none" fill="#fff"/>
    </g>
  </g>
</svg>
