<svg xmlns="http://www.w3.org/2000/svg" width="47.12" height="38.607" viewBox="0 0 47.12 38.607">
  <g id="组_5052" data-name="组 5052" transform="translate(0 -37.532)">
    <g id="组_36" data-name="组 36" transform="translate(0 37.532)">
      <g id="组_34" data-name="组 34">
        <path id="路径_92" data-name="路径 92" d="M383.146,942.2l-16.56.071c-1.512,0-13.824-.1-15.234-.1l-5.843-.051a3.549,3.549,0,0,1-3.591-3.854l1.723-23.8a4.2,4.2,0,0,1,4.148-3.837l37.637.081a3.549,3.549,0,0,1,3.591,3.854l-1.723,23.8A4.2,4.2,0,0,1,383.146,942.2Z" transform="translate(-341.908 -910.628)" fill="#fb7c03"/>
        <path id="路径_93" data-name="路径 93" d="M398.656,1012.764l4.071,7.164,5.684-7.164Z" transform="translate(-381.186 -981.32)" fill="#fb7c03"/>
      </g>
      <path id="路径_94" data-name="路径 94" d="M381.363,943.335a4.062,4.062,0,0,0-3.128-1.442,4.353,4.353,0,0,0-2.62.846A5.78,5.78,0,0,0,374.5,943.8a4.673,4.673,0,0,0-.943-1.082,3.841,3.841,0,0,0-2.476-.9,4.7,4.7,0,0,0-3.359,1.367,5.4,5.4,0,0,0-1.568,3.428,5.617,5.617,0,0,0,1.287,3.948,30.8,30.8,0,0,0,3.718,3.8c.519.479,1.108,1.022,1.718,1.6a.893.893,0,0,0,.608.241,1.016,1.016,0,0,0,.646-.227c.7-.563,1.38-1.093,1.977-1.559a38,38,0,0,0,4.333-3.712,6.452,6.452,0,0,0,1.93-3.911A4.731,4.731,0,0,0,381.363,943.335Z" transform="translate(-358.676 -932.211)" fill="#fff"/>
      <g id="组_35" data-name="组 35" transform="translate(30.436 9.911)">
        <path id="路径_95" data-name="路径 95" d="M446.647,956.932h-3.3l.73-10.428-3.306.94.174-2.481,6.386-2.142h.3Z" transform="translate(-440.772 -942.821)" fill="#fff"/>
      </g>
    </g>
  </g>
</svg>
