<svg xmlns="http://www.w3.org/2000/svg" width="53.955" height="46.665" viewBox="0 0 53.955 46.665">
  <g id="组_16" data-name="组 16" transform="translate(161.854 -420.974)">
    <path id="路径_56" data-name="路径 56" d="M66.035,47.495l-5.664-9.969a3.217,3.217,0,0,0-2.107-1.45,2.176,2.176,0,0,0-1.7.408,2.5,2.5,0,0,0-1.02,1.586l.113.113,5.324,9.357c3.67,6.684,2.492,13.1-3.444,19.032L56.5,67.5a10.768,10.768,0,0,0,6.3-3.285C68.912,58.1,68.482,51.55,66.035,47.495ZM47.5,41.083a4.251,4.251,0,0,1,1.291-4.01l-4.667-4.69a2.422,2.422,0,0,0-4.146,1.2L47.5,41.06Z" transform="translate(-175.615 398.619)" fill="#fb7c03" fill-rule="evenodd"/>
    <path id="路径_57" data-name="路径 57" d="M48.367,40.24a2.56,2.56,0,0,0-1.654-1.133,1.518,1.518,0,0,0-1.2.295c-.34.272-1.337,1.042-.453,2.945l2.674,5.664a1.02,1.02,0,0,1-.521,1.722,1,1,0,0,1-1.088-.566L32.19,35.278a1.858,1.858,0,1,0-2.606,2.606l8.247,8.247A1.02,1.02,0,1,1,36.4,47.558L28.18,39.334l-2.334-2.356a1.858,1.858,0,0,0-3.013,2.039,1.725,1.725,0,0,0,.408.589l2.311,2.334,8.27,8.247a1.009,1.009,0,1,1-1.427,1.427l-8.247-8.247a1.858,1.858,0,0,0-3.172,1.291,1.835,1.835,0,0,0,.544,1.314l3.467,3.489L30.2,54.627a1.02,1.02,0,0,1-1.45,1.427L23.58,50.889a1.835,1.835,0,0,0-3.149,1.291,1.87,1.87,0,0,0,.544,1.314l9.969,9.969c6.344,6.344,12.461,9.335,19.666,2.13,5.143-5.166,6.14-10.422,3.036-16.087L48.39,40.262Z" transform="translate(-170.431 397.853)" fill="#fb7c03" fill-rule="evenodd"/>
    <path id="路径_58" data-name="路径 58" d="M73.063,25.937l-2.6-2.367L66.68,29.489Z" transform="matrix(0.588, -0.809, 0.809, 0.588, -205.355, 466.228)" fill="#fb7c03"/>
    <path id="路径_59" data-name="路径 59" d="M6.383,3.551l-2.6,2.367L0,0Z" transform="translate(-153.793 452.653) rotate(115)" fill="#fb7c03"/>
  </g>
</svg>
