<svg id="Papaya_logo" xmlns="http://www.w3.org/2000/svg" width="45.861" height="54.83" viewBox="0 0 45.861 54.83">
  <path id="路径_1" data-name="路径 1" d="M68.362,48.908l-6.17-10.859a3.5,3.5,0,0,0-2.3-1.58,2.37,2.37,0,0,0-1.851.444,2.725,2.725,0,0,0-1.111,1.728l.123.123,5.8,10.193c4,7.281,2.715,14.265-3.751,20.732L57.971,70.7a11.73,11.73,0,0,0,6.861-3.579C71.5,60.459,71.027,53.326,68.362,48.908ZM48.173,41.924a4.63,4.63,0,0,1,1.407-4.368L44.5,32.446a2.639,2.639,0,0,0-4.517,1.308L48.173,41.9Z" transform="translate(-24.332 -17.525)" fill="#70b300" fill-rule="evenodd"/>
  <path id="路径_2" data-name="路径 2" d="M50.862,40.748a2.789,2.789,0,0,0-1.8-1.234,1.654,1.654,0,0,0-1.308.321c-.37.3-1.456,1.135-.494,3.208l2.912,6.17a1.111,1.111,0,0,1-.568,1.876,1.086,1.086,0,0,1-1.185-.617L33.24,35.343A2.024,2.024,0,1,0,30.4,38.181l8.984,8.984a1.111,1.111,0,1,1-1.555,1.555L28.872,39.76,26.33,37.194a2.024,2.024,0,0,0-3.283,2.221,1.88,1.88,0,0,0,.444.642L26.009,42.6l9.008,8.984a1.1,1.1,0,1,1-1.555,1.555l-8.984-8.984a2.024,2.024,0,0,0-3.455,1.407,2,2,0,0,0,.592,1.432l3.776,3.8,5.677,5.627a1.111,1.111,0,0,1-1.58,1.555l-5.627-5.627a2,2,0,0,0-3.431,1.407,2.037,2.037,0,0,0,.592,1.431L31.883,66.045c6.911,6.911,13.574,10.168,21.423,2.32,5.6-5.627,6.688-11.353,3.307-17.523l-5.726-10.07Z" transform="translate(-20.431 -18.101)" fill="#70b300" fill-rule="evenodd"/>
  <path id="路径_3" data-name="路径 3" d="M39.634,26.148l2.829-2.578,4.124,6.447Z" transform="translate(-24.263 -15.91)" fill="#70b300"/>
  <path id="路径_4" data-name="路径 4" d="M73.633,26.148,70.8,23.57,66.68,30.017Z" transform="translate(-29.66 -15.91)" fill="#70b300"/>
  <path id="路径_5" data-name="路径 5" d="M58.856,14a4.667,4.667,0,0,0-3.393,1.467A4.557,4.557,0,0,0,52.07,14a5.27,5.27,0,0,0-5.09,5.543c0,5.543,6.787,11.085,8.483,11.085s8.483-5.543,8.483-11.085A5.27,5.27,0,0,0,58.856,14Z" transform="translate(-25.729 -14)" fill="red"/>
</svg>
