<svg xmlns="http://www.w3.org/2000/svg" width="293.283" height="450.101" viewBox="0 0 293.283 450.101">
  <g id="组_1592" data-name="组 1592" transform="translate(0 -1.665)">
    <g id="组_1519" data-name="组 1519" transform="matrix(0.07, -0.998, 0.998, 0.07, 139.665, 122.768)">
      <path id="路径_156" data-name="路径 156" d="M2.321,1.625C.833.621,0,0,0,0A14.271,14.271,0,0,0,2.321,1.625Z" transform="translate(32.244 4.95)" fill="#04110d"/>
      <path id="路径_158" data-name="路径 158" d="M86.856,85.2c.412-.431.819-.866,1.215-1.312.1-.115.2-.232.3-.348s.209-.24.313-.361l.053-.061c.3-.345.588-.692.874-1.045.061-.075.118-.152.179-.228.112-.139.221-.28.33-.421l.107-.137c.283-.364.564-.729.837-1.1l.029-.041c.133-.181.26-.366.39-.548l.153-.215q.584-.829,1.134-1.682l.191-.3q.522-.822,1.014-1.664c.076-.129.15-.259.224-.39q.463-.811.9-1.637c.084-.161.166-.323.248-.485q.405-.8.784-1.6c.09-.194.177-.391.265-.586.233-.518.46-1.037.675-1.564.094-.228.181-.46.272-.69.2-.5.391-1.007.572-1.518.094-.265.181-.533.271-.8.163-.486.325-.972.474-1.464.091-.3.173-.607.259-.912.131-.467.264-.933.383-1.406.086-.341.159-.687.238-1.031.1-.444.206-.887.3-1.336.077-.386.14-.777.208-1.167.073-.416.151-.83.214-1.249.066-.441.115-.886.169-1.33.046-.377.1-.75.138-1.129.052-.526.084-1.057.12-1.587.021-.3.051-.607.067-.913q.063-1.262.064-2.539c0-.764-.023-1.521-.057-2.277-.011-.245-.025-.488-.04-.732q-.047-.788-.12-1.57c-.023-.264-.043-.529-.071-.791q-.1-.947-.239-1.884c-.063-.437-.137-.869-.211-1.3q-.056-.328-.117-.655A50.412,50.412,0,0,0,50.407,0c-.642,0-1.279.025-1.916.048h-.007q-.709.026-1.413.073l-.326.025q-1.229.088-2.44.234c-.161.019-.322.04-.482.061Q42.682.591,41.558.79c-.158.028-.316.055-.474.084q-1.258.236-2.492.532c-.057.014-.115.026-.173.04q-.642.156-1.278.33c-.175.048-.347.1-.521.148q-1.012.287-2.007.614c-.219.073-.437.147-.656.222q-.894.308-1.772.649c-.247.1-.493.192-.739.291-.4.162-.794.327-1.186.5q-.625.273-1.243.562-.49.23-.973.471c-.366.181-.73.369-1.091.559q-.575.3-1.14.62-.492.275-.977.562-.536.317-1.065.645-.556.347-1.1.708c-.241.159-.481.317-.719.48q-.707.485-1.4.993-.325.239-.645.484c-.471.358-.936.721-1.393,1.1-.175.144-.347.291-.521.438q-.589.5-1.164,1.008c-.17.151-.339.3-.507.455q-.65.6-1.277,1.217c-.154.152-.309.3-.461.457q-.657.664-1.29,1.352-.216.235-.428.473c-.424.474-.843.953-1.25,1.443-.112.135-.221.273-.332.41q-.546.671-1.07,1.361-.937,1.236-1.8,2.529h0l-.026.04c-.548.825-1.068,1.67-1.567,2.529-.146.251-.292.5-.434.755q-.3.532-.583,1.071c-.147.278-.288.559-.43.839-.2.393-.4.786-.584,1.185q-.368.779-.71,1.57c-.139.323-.269.651-.4.978-.142.352-.283.7-.418,1.059-.123.324-.243.648-.359.974-.148.416-.288.836-.426,1.258-.087.265-.178.528-.261.794-.2.654-.387,1.314-.562,1.979-.07.266-.133.534-.2.8q-.175.71-.33,1.429c-.057.268-.115.535-.168.8q-.178.9-.325,1.82c-.021.129-.046.257-.066.387-.112.734-.2,1.474-.282,2.219-.024.226-.043.454-.064.681q-.078.846-.129,1.7c-.014.23-.029.459-.039.689C.023,48.852,0,49.627,0,50.407A50.162,50.162,0,0,0,9.509,79.857l.006.009q1.333,1.847,2.825,3.564l.144.166q1.442,1.646,3.021,3.162l.314.3q1.524,1.439,3.165,2.751c.176.14.353.279.531.417q.791.615,1.606,1.2c.229.164.457.33.689.49.313.217.63.427.949.637.273.18.549.355.825.529q.654.412,1.321.805.518.305,1.042.6c.286.159.572.315.861.468q.638.339,1.287.659.478.237.963.463.646.3,1.3.589c.25.109.5.217.751.321.6.247,1.2.486,1.8.711.192.071.388.137.581.206q.759.271,1.528.517c.208.067.415.135.625.2q.979.3,1.975.561c.182.048.366.091.548.137q.868.217,1.746.4c.159.034.316.07.475.1.7.142,1.409.267,2.12.379.178.028.358.053.537.079.659.1,1.321.182,1.987.253.1.01.189.023.285.032.741.074,1.489.128,2.239.17.179.01.359.018.538.026.766.035,1.534.058,2.308.058q1.28,0,2.543-.064c.283-.014.562-.043.843-.062.557-.037,1.114-.072,1.667-.127.338-.034.67-.082,1.006-.123.49-.059.981-.114,1.466-.186.36-.054.715-.123,1.073-.184.454-.079.91-.153,1.361-.243.371-.074.737-.162,1.1-.244.429-.1.859-.189,1.283-.3.379-.1.753-.2,1.128-.307.406-.112.813-.222,1.214-.345.383-.117.761-.244,1.141-.37s.771-.253,1.152-.39.768-.286,1.151-.434c.365-.141.73-.281,1.09-.43.388-.16.772-.33,1.155-.5.345-.153.689-.305,1.031-.466.39-.183.775-.374,1.159-.567.323-.162.646-.325.965-.494.392-.207.779-.421,1.165-.639.3-.17.6-.34.9-.515q.589-.348,1.168-.713.417-.262.829-.532.59-.388,1.17-.79.381-.265.757-.538.594-.43,1.175-.875c.228-.175.451-.352.676-.532.4-.317.794-.639,1.182-.968.2-.17.4-.343.595-.515.4-.351.8-.7,1.189-1.068.171-.159.338-.322.507-.483.405-.388.807-.78,1.2-1.181C86.584,85.493,86.718,85.348,86.856,85.2Z" transform="translate(0 10.505)" fill="#04110d" opacity="0.15"/>
      <ellipse id="椭圆_8" data-name="椭圆 8" cx="50.408" cy="50.408" rx="50.408" ry="50.408" transform="translate(1.253 97.952) rotate(-76.308)" fill="#fff"/>
      <g id="组_1475" data-name="组 1475" transform="translate(19.506 10.553)">
        <path id="路径_159" data-name="路径 159" d="M48.418.019C26.984-.6,0,14.032,0,14.032S27.4,17.513,36.767,48.5a50.216,50.216,0,0,0,13.64-34.465A50.412,50.412,0,0,0,48.418.019Z" transform="translate(42.646 36.327)" fill="#f25c6a"/>
        <path id="路径_160" data-name="路径 160" d="M40.46,50.359S34.553,23.8,38.544,0A50.328,50.328,0,0,0,0,20.293C15.392,37.5,40.46,50.359,40.46,50.359Z" transform="translate(2.186 0)" fill="#007b9c"/>
        <path id="路径_161" data-name="路径 161" d="M42.646,0C34.8,14.47,17.68,22.467,0,26.86A50.361,50.361,0,0,0,42.646,50.407c.78,0,1.553-.023,2.324-.059C54.718,22.276,42.646,0,42.646,0Z" transform="translate(0 50.359)" fill="#ffb94e"/>
      </g>
      <path id="路径_162" data-name="路径 162" d="M58.706,53.736A50.407,50.407,0,0,1,8.3,3.329C8.3,2.209,8.348,1.1,8.42,0a50.4,50.4,0,1,0,92.273,31.218A50.355,50.355,0,0,1,58.706,53.736Z" transform="translate(11.746 33.023)" fill="#393590" opacity="0.25"/>
    </g>
    <g id="组_1586" data-name="组 1586" transform="translate(13 161.266)">
      <path id="路径_322" data-name="路径 322" d="M290.5,140.141,278.569,183.46l-15.8,42.063-35.143,28.006L190.146,278.32l-44.9,1.964-44.9-1.964L62.874,253.529,27.731,225.523l-15.8-42.063L0,140.141,11.931,96.823l15.8-42.063L62.874,26.754l37.479-24.79L145.25,0l44.9,1.964,37.479,24.79L262.767,54.76l15.8,42.063Z" transform="translate(0 290.5) rotate(-90)" fill="#d9cebe"/>
      <path id="路径_324" data-name="路径 324" d="M227.693,79.515,214.668,44.735,186.289,22.119,155.341,1.6,118.663,0,81.986,1.6,51.711,21.629,22.659,44.736,9.9,78.7,0,114.491l9.634,34.977,13.025,34.779,28.378,22.615,30.95,20.514,36.678,1.6,36.678-1.6,30.273-20.025,29.054-23.1,12.76-33.968,9.9-35.788Zm-18.066,64.531-10.779,28.7-23.983,19.112L149.3,208.766,118.665,210.1l-30.632-1.339L62.464,191.853l-23.98-19.111L27.7,144.046l-8.14-29.556L27.7,84.934l10.779-28.7L62.464,37.126,88.033,20.213l30.632-1.339L149.3,20.213l25.568,16.912,23.983,19.113,10.779,28.7,8.14,29.556Z" transform="translate(25.651 263.914) rotate(-90)" fill="#d9cebe"/>
      <path id="路径_323" data-name="路径 323" d="M152.877,145.683l1.042-2.788.759-2.753H290.5L278.568,96.822l-15.8-42.063L152.878,134.6h0l-2.33-1.85-2.384-1.578L190.146,1.964,145.25,0l-44.9,1.964L142.335,131.17l-2.479,1.648-2.233,1.779h0L27.731,54.76l-15.8,42.063L0,140.141H135.821l.8,2.869,1,2.674L27.731,225.523,62.874,253.53l37.479,24.79,41.982-129.207h0l2.915.126,2.913-.126h0l41.982,129.207,37.479-24.79,35.143-28.007-109.891-79.84Zm-5.577.769h0l-2.05.089-2.051-.089h0l-1.663-1.094-1.652-1.317h0l-.7-1.861-.56-2.037v0l.522-1.921.745-1.978h0L141.438,135l1.76-1.166h0l1.993-.091,2.108.092h0l1.664,1.1,1.652,1.316h0l.7,1.861.561,2.037h0l-.525,1.921-.743,1.979v0l-1.555,1.245Z" transform="translate(0 290.5) rotate(-90)" fill="#d9cebe"/>
      <g id="组_1570" data-name="组 1570" transform="translate(25.65 263.913) rotate(-90)">
        <path id="路径_317" data-name="路径 317" d="M19.559,69.751,27.7,40.2,38.48,11.5l0,0L22.657,0,9.9,33.963,0,69.751H19.559Z" transform="translate(0 44.74)" fill="#d9cebe"/>
        <path id="路径_318" data-name="路径 318" d="M65.374,36.022,39.8,19.11,15.826,0,0,11.5l0,0L28.379,34.118,59.328,54.631Z" transform="translate(22.657 172.744)" fill="#d9cebe"/>
        <path id="路径_319" data-name="路径 319" d="M65.373,11.5l0,0L49.549,0,25.569,19.11,0,36.021H0l6.046,18.61L36.319,34.607Z" transform="translate(149.295 172.745)" fill="#d9cebe"/>
        <path id="路径_320" data-name="路径 320" d="M0,11.5,10.783,40.2l8.14,29.556H38.483L28.85,34.777,15.826,0,0,11.5Z" transform="translate(198.843 44.739)" fill="#d9cebe"/>
        <path id="路径_321" data-name="路径 321" d="M6.047,20.215l30.632-1.34,30.631,1.34L73.357,1.6h0L36.679,0,0,1.6H0Z" transform="translate(81.984 0)" fill="#d9cebe"/>
      </g>
    </g>
    <g id="组_1587" data-name="组 1587" transform="translate(0 154.266)">
      <path id="路径_322-2" data-name="路径 322" d="M290.5,140.141,278.569,183.46l-15.8,42.063-35.143,28.006L190.146,278.32l-44.9,1.964-44.9-1.964L62.874,253.529,27.731,225.523l-15.8-42.063L0,140.141,11.931,96.823l15.8-42.063L62.874,26.754l37.479-24.79L145.25,0l44.9,1.964,37.479,24.79L262.767,54.76l15.8,42.063Z" transform="translate(0 290.5) rotate(-90)" fill="#ffb94e"/>
      <path id="路径_324-2" data-name="路径 324" d="M227.693,79.515,214.668,44.735,186.289,22.119,155.341,1.6,118.663,0,81.986,1.6,51.711,21.629,22.659,44.736,9.9,78.7,0,114.491l9.634,34.977,13.025,34.779,28.378,22.615,30.95,20.514,36.678,1.6,36.678-1.6,30.273-20.025,29.054-23.1,12.76-33.968,9.9-35.788Zm-18.066,64.531-10.779,28.7-23.983,19.112L149.3,208.766,118.665,210.1l-30.632-1.339L62.464,191.853l-23.98-19.111L27.7,144.046l-8.14-29.556L27.7,84.934l10.779-28.7L62.464,37.126,88.033,20.213l30.632-1.339L149.3,20.213l25.568,16.912,23.983,19.113,10.779,28.7,8.14,29.556Z" transform="translate(25.651 263.914) rotate(-90)" fill="#fdd8a3"/>
      <path id="路径_323-2" data-name="路径 323" d="M152.877,145.683l1.042-2.788.759-2.753H290.5L278.568,96.822l-15.8-42.063L152.878,134.6h0l-2.33-1.85-2.384-1.578L190.146,1.964,145.25,0l-44.9,1.964L142.335,131.17l-2.479,1.648-2.233,1.779h0L27.731,54.76l-15.8,42.063L0,140.141H135.821l.8,2.869,1,2.674L27.731,225.523,62.874,253.53l37.479,24.79,41.982-129.207h0l2.915.126,2.913-.126h0l41.982,129.207,37.479-24.79,35.143-28.007-109.891-79.84Zm-5.577.769h0l-2.05.089-2.051-.089h0l-1.663-1.094-1.652-1.317h0l-.7-1.861-.56-2.037v0l.522-1.921.745-1.978h0L141.438,135l1.76-1.166h0l1.993-.091,2.108.092h0l1.664,1.1,1.652,1.316h0l.7,1.861.561,2.037h0l-.525,1.921-.743,1.979v0l-1.555,1.245Z" transform="translate(0 290.5) rotate(-90)" fill="#db9537"/>
      <g id="组_1570-2" data-name="组 1570" transform="translate(25.65 263.913) rotate(-90)">
        <path id="路径_317-2" data-name="路径 317" d="M19.559,69.751,27.7,40.2,38.48,11.5l0,0L22.657,0,9.9,33.963,0,69.751H19.559Z" transform="translate(0 44.74)" fill="#eaae68"/>
        <path id="路径_318-2" data-name="路径 318" d="M65.374,36.022,39.8,19.11,15.826,0,0,11.5l0,0L28.379,34.118,59.328,54.631Z" transform="translate(22.657 172.744)" fill="#eaae68"/>
        <path id="路径_319-2" data-name="路径 319" d="M65.373,11.5l0,0L49.549,0,25.569,19.11,0,36.021H0l6.046,18.61L36.319,34.607Z" transform="translate(149.295 172.745)" fill="#eaae68"/>
        <path id="路径_320-2" data-name="路径 320" d="M0,11.5,10.783,40.2l8.14,29.556H38.483L28.85,34.777,15.826,0,0,11.5Z" transform="translate(198.843 44.739)" fill="#eaae68"/>
        <path id="路径_321-2" data-name="路径 321" d="M6.047,20.215l30.632-1.34,30.631,1.34L73.357,1.6h0L36.679,0,0,1.6H0Z" transform="translate(81.984 0)" fill="#eaae68"/>
      </g>
    </g>
  </g>
</svg>
