<svg xmlns="http://www.w3.org/2000/svg" xmlns:xlink="http://www.w3.org/1999/xlink" width="263" height="743" viewBox="0 0 263 743">
  <defs>
    <clipPath id="clip-path">
      <rect id="矩形_20" data-name="矩形 20" width="263" height="743" transform="translate(1177 881)" fill="#fff" stroke="#707070" stroke-width="1"/>
    </clipPath>
  </defs>
  <g id="蒙版组_10" data-name="蒙版组 10" transform="translate(-1177 -881)" clip-path="url(#clip-path)">
    <g id="组_1591" data-name="组 1591" transform="translate(1176.639 878.94)">
      <path id="路径_153" data-name="路径 153" d="M0,0C.226,2.436.423,3.831.423,3.831A19.4,19.4,0,0,1,0,0Z" transform="matrix(-0.995, -0.105, 0.105, -0.995, 310.895, 88.71)" fill="#04110d"/>
      <path id="路径_152" data-name="路径 152" d="M0,0A19.5,19.5,0,0,1,3.2,2.152S2.053,1.328,0,0Z" transform="matrix(-0.995, -0.105, 0.105, -0.995, 145.913, 152.61)" fill="#04110d"/>
      <path id="路径_163" data-name="路径 163" d="M29.79,116.413a62.919,62.919,0,1,1,86.623-20.348A62.919,62.919,0,0,1,29.79,116.413ZM82.4,31.5A36.974,36.974,0,1,0,94.357,82.4,36.973,36.973,0,0,0,82.4,31.5Z" transform="matrix(-0.208, 0.978, -0.978, -0.208, 257.858, 383.416)" fill="#fff"/>
      <path id="路径_164" data-name="路径 164" d="M21.33,19.878A13.059,13.059,0,0,1,0,21.161,62.874,62.874,0,0,1,11.74,0a13.065,13.065,0,0,1,9.59,19.878Z" transform="matrix(-0.995, -0.105, 0.105, -0.995, 238.525, 478.448)" fill="#f25c6a"/>
      <path id="路径_165" data-name="路径 165" d="M.469,16.539a13.077,13.077,0,1,1,25.682-3.11A37.034,37.034,0,0,0,.469,16.539Z" transform="matrix(-0.995, -0.105, 0.105, -0.995, 195.407, 482.785)" fill="#007b9c"/>
      <path id="路径_166" data-name="路径 166" d="M6.2,21.439A13.059,13.059,0,0,1,5.052,0,62.5,62.5,0,0,1,20.99,20.733,13.079,13.079,0,0,1,6.2,21.439Z" transform="matrix(-0.995, -0.105, 0.105, -0.995, 142.665, 475.79)" fill="#f25c6a"/>
      <path id="路径_167" data-name="路径 167" d="M19.905,19.979A13.042,13.042,0,0,1,0,22.779c.488-.681.987-1.351,1.434-2.074A36.782,36.782,0,0,0,6.951.13,13.084,13.084,0,0,1,19.905,19.979Z" transform="matrix(-0.995, -0.105, 0.105, -0.995, 153.262, 429.974)" fill="#fbdd0b"/>
      <path id="路径_168" data-name="路径 168" d="M1.957,6.2A13.084,13.084,0,0,1,25.692,16.572a62.885,62.885,0,0,1-25.276-.23A13.034,13.034,0,0,1,1.957,6.2Z" transform="matrix(-0.995, -0.105, 0.105, -0.995, 201.528, 388.385)" fill="#007b9c"/>
      <path id="路径_169" data-name="路径 169" d="M24.4,19.631c-.065.112-.118.227-.186.337A13.087,13.087,0,1,1,13.011,0,36.852,36.852,0,0,0,24.4,19.631Z" transform="matrix(-0.995, -0.105, 0.105, -0.995, 232.893, 429.237)" fill="#fbdd0b"/>
      <path id="路径_170" data-name="路径 170" d="M16.226,49.078C-10.741,30.937,4.046,0,4.046,0h0A36.971,36.971,0,1,0,74.018,1.511C91.448,45.53,41.313,65.954,16.226,49.078Z" transform="matrix(-0.995, -0.105, 0.105, -0.995, 220.479, 448.524)" fill="#892518" opacity="0.25"/>
      <path id="路径_171" data-name="路径 171" d="M.151,67.225a62.923,62.923,0,0,1,112-43.48l.03.056C25.6-31.2.559,65.621.151,67.225Z" transform="matrix(-0.995, -0.105, 0.105, -0.995, 239.211, 501.043)" fill="#892518" opacity="0.25"/>
      <g id="组_1494" data-name="组 1494" transform="matrix(-0.995, -0.105, 0.105, -0.995, 332.937, 650.503)">
        <path id="路径_178" data-name="路径 178" d="M58.382,47.885S72.7,48.421,96.743,36.89l-20.282-.047,31.95-5.25L121.751,20.2l-20.44,3.661,27.28-8.838L139.4,0,84.216,6.741,72.8,16.4,80.6,6.067,74.412,4.911,57.363,24.736,68.736,3.852,0,13.764,14.526,36.823S40.913,50.832,58.382,47.885Z" transform="translate(195.367 100.264)" fill="#156049"/>
        <path id="路径_179" data-name="路径 179" d="M43.531,12.8s24.024,2.882,60.935,31.129,67.5,53.178,67.5,53.178-11.021,7.555-21.63,7.177c0,0,16.188,1.953,26.921-4.053l6.034,4.864-13.732,4.913,18.507-1.886s47.561,39.846,65.683,40.024c0,0-189.66,17.72-253.749-148.149C0,0,25.567,7.282,43.531,12.8Z" transform="translate(0 0)" fill="#0ca576"/>
      </g>
      <path id="路径_186" data-name="路径 186" d="M209.51,290.693l-.359-.229-5.949-29.57.146,25.767-1.575-1.078a334.3,334.3,0,0,1-32.7-25.658l-.263-.233-6.646-38.884-5.405,27.748-1.325-1.29c-4.786-4.657-9.68-9.655-14.546-14.856l-.272-.291.12-19.512-5.4,13.78-1.083-1.207c-23.9-26.621-47.017-58.33-68.717-94.246l-.128-.213-1.1-19.59-2.041,14.34-1.449-2.463C39.7,87.135,19.61,46.634,1.107,2.632L0,0,2.507,1.366C2.971,1.619,49.54,27.134,102.993,69l3.3,2.586L88.062,67.961l24.53,8.751.161.057.132.107a682.281,682.281,0,0,1,56.3,50.72l1.894,1.919-19.71-1.616,25.984,8.345.245.079.177.186a481.152,481.152,0,0,1,32.3,37.8l1.572,2.055-6.836-1.245,7.6,2.261.2.265a365.682,365.682,0,0,1,21.544,32.073l1.286,2.161-16.8-4.779,19.775,10,.149.267c2.457,4.406,4.614,8.489,6.6,12.484l1.321,2.663-9.379-4.661,10.787,7.656.112.239c12.531,26.835,19.573,53.561,20.929,79.438l.063,1.2-1.193-.158C267.561,316.2,244.45,312.929,209.51,290.693Zm36.781-53.858L225.5,222.079l1.024-1.711,15.485,7.7c-1.552-3.038-3.219-6.156-5.055-9.456l-28.538-14.434.725-1.855,21.987,6.255c-5.943-9.817-12.638-19.718-19.929-29.468l-24.539-7.3.464-1.942,19.772,3.6c-9.12-11.77-19.34-23.666-30.41-35.4l-42.3-13.586,31.665,2.6A684.218,684.218,0,0,0,111.756,78.54L74.534,65.262l.531-1.922,23.366,4.648A836.344,836.344,0,0,0,4.08,4.542c17.73,41.88,36.9,80.536,57.008,114.984l2.658-18.671,1.989.085,1.636,29.174c21.271,35.182,43.9,66.3,67.282,92.522l8.145-20.781-.182,29.481c4.306,4.6,8.632,9.029,12.883,13.2l6.788-34.85,8.371,48.972a334.375,334.375,0,0,0,30.668,24.186l-.184-32.28,1.98-.2,7.82,38.87c29.853,18.931,50.811,23.831,55.91,24.806C265.356,288.889,258.441,262.922,246.291,236.835Z" transform="matrix(-0.995, -0.105, 0.105, -0.995, 337.063, 507.866)" fill="#00543c"/>
      <g id="组_1500" data-name="组 1500" transform="matrix(-0.995, -0.105, 0.105, -0.995, 298.237, 525.333)">
        <path id="路径_187" data-name="路径 187" d="M36.957,138.58C52.086,181.519,68.562,216.4,85,244.659l10.145-15.544-5.128,23.954q5.62,9.221,11.2,17.463l12.333-29.407-1.579,44.537a331.807,331.807,0,0,0,26.724,31.676l6.762-33.522-.248,40.075c29.875,29.055,51.5,36.626,51.5,36.626,4.154-27.045,2.085-54.533-4.326-81.651L174.846,260l15.958,12.54c-1.182-4.52-2.5-9.026-3.907-13.518l-25.246-20.126,22.5,11.766a363.494,363.494,0,0,0-14.533-35.686L146.78,202.679l21.036,8.523a479.2,479.2,0,0,0-23.894-43.486l-31.315-17.742,24.727,7.287A681.414,681.414,0,0,0,92.593,96.245L58.7,75.588,84.519,86.536C40.242,34.139,0,0,0,0,9.731,49.7,21.33,92.688,33.953,129.872l7.37-20.436Z" transform="translate(0 0)" fill="#05b785"/>
        <path id="路径_188" data-name="路径 188" d="M2.19.611,45.066,79.949,101.8,111.828a1.166,1.166,0,0,1,.445,1.586,1.184,1.184,0,0,1-1.587.445L47.14,83.788l53.924,99.782,57.081,30.876a1.167,1.167,0,0,1,.47,1.58,1.182,1.182,0,0,1-1.58.47l-53.947-29.181,81.829,151.417a1.165,1.165,0,0,1-2.05,1.107L149.7,278.458,146,311.149a1.165,1.165,0,1,1-2.315-.261l4.069-36.018-61.2-113.242L71.77,204.1a1.165,1.165,0,0,1-2.2-.765L85.058,158.85.141,1.719A1.165,1.165,0,1,1,2.19.611Z" transform="translate(7.309 13.886)" fill="#099368"/>
      </g>
      <path id="路径_197" data-name="路径 197" d="M0,0S34,8.6,36.531,26.156C36.532,26.156,21.192,27.306,0,0Z" transform="matrix(-0.995, -0.105, 0.105, -0.995, 172.899, 362.871)" fill="#f25c6a"/>
      <g id="组_1511" data-name="组 1511" transform="matrix(-0.995, -0.105, 0.105, -0.995, 313.388, 271.952)">
        <path id="路径_211" data-name="路径 211" d="M0,0C2.053,1.328,3.2,2.152,3.2,2.152A19.5,19.5,0,0,0,0,0Z" transform="translate(158.061 77.39)" fill="#00543c"/>
        <path id="路径_212" data-name="路径 212" d="M0,0A19.477,19.477,0,0,0,.423,3.831S.225,2.436,0,0Z" transform="translate(0.662 158.186)" fill="#00543c"/>
        <path id="路径_213" data-name="路径 213" d="M.662,158.186C.5,147.515,8.29,133.164,23.035,100.64,36.344,71.284,33.3,49.106,31.586,41.5c3.24,5.754,6.846,11.927,10.788,18.367a173.586,173.586,0,0,1-15.241,53.938c-11.079,23.069-6.935,54.727-5.053,65.519-1.019-10.624,5.6-25.553,17.692-59.153,9.944-27.628,6.837-48.227,4.452-57.3,4.447,7.162,9.3,14.618,14.534,22.176C54.25,95.57,31.7,150.35,37.316,180.656,43.543,214.283,52.763,205.2,52.763,205.2l6.62-119.249c3.8,5.461,7.8,10.967,11.98,16.449-2.935,12.816-20.422,96.159,13.986,125.2,0,0-3.532-59.56-11.331-77.3-6.693-15.227-3.567-40.8-2.545-47.757,5.282,6.914,10.858,13.785,16.715,20.465-2.578,8.957-9.886,37.046-5.816,54.981,4.894,21.566,32.271,57.72,32.271,57.72s1.459-28.654-9.557-51.234c-8.817-18.071-13.8-48.415-15.434-59.815A299.748,299.748,0,0,0,112.558,147.9c2.039,15.428,13.212,93.772,30.853,102.141,17.414,8.261-20.822-81.059-29.492-100.915,4.383,3.909,8.873,7.647,13.47,11.161a1.415,1.415,0,0,0,1.978-.264c.01-.013.011-.028.02-.041,16.093,8.371,63.968,31.906,79.607,24.225,16.379-8.044-59.342-22.456-79.9-26.17-5.667-4.332-11.172-9.007-16.51-13.931a67.436,67.436,0,0,0,30.86,8.245c24.933.767,54.482-12.39,74.121-.2,0,0-28.722-26.775-59.073-16.567-24.074,8.1-43.731,5.341-50.838,3.855-6.4-6.21-12.538-12.761-18.4-19.5,7.146,4.783,19.787,11.347,34.459,10.492,22.78-1.327,52.641-18.709,71.479-12.143,0,0-35.739-13.173-65.337-5.119-22.651,6.164-38.047,4.08-44.032,2.762-4.195-4.971-8.238-10.023-12.118-15.1a82.7,82.7,0,0,0,30.5,8.115c21.871,1.6,65.786-6.209,80.83,1.633,0,0-35.568-24.181-61.762-19.733-23.028,3.911-40.533,10.457-50.66,8.549-4.741-6.259-9.235-12.544-13.469-18.747,6.619,3.722,20.828,10.22,37.317,8.725,22.822-2.069,69.059,3.132,87.113,10.4,0,0-16.089-19.738-52.288-22.067C96.892,75.5,76.3,83.6,58.032,79.02c-6.714-9.922-12.75-19.6-18.048-28.58C45.537,55.247,63.866,68.716,96.7,70.559c35.648,2,51.976,1.744,61.358,6.831-9.2-5.949-36.711-22.135-62.277-20.953a172.981,172.981,0,0,1-56.6-7.363c-3.337-5.691-6.37-11.083-9.083-16.063,7.192,3.945,25.978,13.416,42.868,14.775,21.418,1.723,67.579-4.992,87.281,4.75,0,0-30.538-23.6-66.431-19.436a247.491,247.491,0,0,1-64.438-1.411C19.539,13.521,14.112,1.2,13.957.847a1.41,1.41,0,1,0-2.586,1.126c.174.4,7,15.883,19.257,37.824A173.1,173.1,0,0,1,10.944,93.282C-1.946,115.39-.351,147.278.662,158.186Z" transform="translate(0 0)" fill="#00543c"/>
        <path id="路径_214" data-name="路径 214" d="M0,0A19.491,19.491,0,0,0,.728,3.784S.421,2.41,0,0Z" transform="translate(22.079 179.327)" fill="#00543c"/>
      </g>
      <g id="组_1590" data-name="组 1590" transform="translate(103.864 515.526)">
        <g id="组_1588" data-name="组 1588" transform="translate(0 11)">
          <path id="路径_312" data-name="路径 312" d="M-75.026,810.147l9.292,33.737,12.307,32.76,27.37,21.812,29.19,19.308L38.1,919.293l34.966-1.529,29.19-19.308,27.371-21.812,12.306-32.76,9.292-33.737-9.292-33.738-12.306-32.76-27.371-21.812L73.065,702.53,38.1,701,3.133,702.53l-29.19,19.307-27.37,21.812-12.306,32.76Z" transform="translate(75.026 -701)" fill="#e1c8c5"/>
          <path id="路径_313" data-name="路径 313" d="M32.158,814.462l-.811-2.172-.591-2.144H-75.026l9.293-33.738,12.306-32.76L32.158,805.83h0l1.814-1.441,1.856-1.229-32.7-100.63L38.1,701l34.967,1.53-32.7,100.63,1.931,1.284,1.74,1.386h0l85.586-62.181,12.306,32.76,9.292,33.738H45.442l-.62,2.234-.782,2.082,85.586,62.181-27.37,21.812-29.19,19.307-32.7-100.63h0l-2.27.1-2.269-.1h0L3.133,917.764l-29.19-19.307-27.37-21.812,85.584-62.183Zm4.343.6h0l1.6.07,1.6-.069h0l1.295-.852,1.286-1.025h0l.549-1.45.436-1.587h0l-.406-1.5-.58-1.54h0l-1.212-.97-1.371-.909h0l-1.552-.071-1.642.072h0l-1.3.853-1.287,1.024h0l-.548,1.45-.437,1.587h0l.409,1.5.578,1.54h0l1.211.97Z" transform="translate(75.026 -701)" fill="#e1c8c5"/>
        </g>
        <g id="组_1589" data-name="组 1589" transform="translate(0)">
          <path id="路径_312-2" data-name="路径 312" d="M-75.026,810.147l9.292,33.737,12.307,32.76,27.37,21.812,29.19,19.308L38.1,919.293l34.966-1.529,29.19-19.308,27.371-21.812,12.306-32.76,9.292-33.737-9.292-33.738-12.306-32.76-27.371-21.812L73.065,702.53,38.1,701,3.133,702.53l-29.19,19.307-27.37,21.812-12.306,32.76Z" transform="translate(75.026 -701)" fill="#fff"/>
          <path id="路径_313-2" data-name="路径 313" d="M32.158,814.462l-.811-2.172-.591-2.144H-75.026l9.293-33.738,12.306-32.76L32.158,805.83h0l1.814-1.441,1.856-1.229-32.7-100.63L38.1,701l34.967,1.53-32.7,100.63,1.931,1.284,1.74,1.386h0l85.586-62.181,12.306,32.76,9.292,33.738H45.442l-.62,2.234-.782,2.082,85.586,62.181-27.37,21.812-29.19,19.307-32.7-100.63h0l-2.27.1-2.269-.1h0L3.133,917.764l-29.19-19.307-27.37-21.812,85.584-62.183Zm4.343.6h0l1.6.07,1.6-.069h0l1.295-.852,1.286-1.025h0l.549-1.45.436-1.587h0l-.406-1.5-.58-1.54h0l-1.212-.97-1.371-.909h0l-1.552-.071-1.642.072h0l-1.3.853-1.287,1.024h0l-.548,1.45-.437,1.587h0l.409,1.5.578,1.54h0l1.211.97Z" transform="translate(75.026 -701)" fill="#f25c6a"/>
        </g>
      </g>
    </g>
  </g>
</svg>
