<svg xmlns="http://www.w3.org/2000/svg" width="1531.813" height="323.62" viewBox="0 0 1531.813 323.62">
  <g id="组_1580" data-name="组 1580" transform="translate(6086.955 -4328.763)">
    <path id="路径_346" data-name="路径 346" d="M0,0A17.83,17.83,0,0,1,2.928,1.967S1.877,1.214,0,0Z" transform="matrix(0.087, -0.996, 0.996, 0.087, -5634.805, 4446.77)" fill="#04110d"/>
    <path id="路径_330" data-name="路径 330" d="M0,0C.207,2.227.387,3.5.387,3.5A17.738,17.738,0,0,1,0,0Z" transform="matrix(0.087, -0.996, 0.996, 0.087, -5573.759, 4596.564)" fill="#04110d"/>
    <path id="路径_334" data-name="路径 334" d="M0,0C.384,2.2.666,3.46.666,3.46A17.958,17.958,0,0,1,0,0Z" transform="matrix(0.087, -0.996, 0.996, 0.087, -5552.798, 4578.743)" fill="#04110d"/>
    <path id="路径_325" data-name="路径 325" d="M.319,3.509A17.852,17.852,0,0,0,0,0S.155,1.278.319,3.509Z" transform="translate(-4959.023 4598.244) rotate(90)" fill="#04110d"/>
    <path id="路径_335" data-name="路径 335" d="M27.236,106.431a57.524,57.524,0,1,1,79.2-18.6A57.525,57.525,0,0,1,27.236,106.431ZM75.335,28.8A33.8,33.8,0,1,0,86.267,75.336,33.8,33.8,0,0,0,75.335,28.8Z" transform="matrix(0.087, -0.996, 0.996, 0.087, -5951.827, 4537.63)" fill="#fff"/>
    <path id="路径_337" data-name="路径 337" d="M19.5,18.174A11.939,11.939,0,0,1,0,19.347,57.483,57.483,0,0,1,10.733,0,11.945,11.945,0,0,1,19.5,18.174Z" transform="matrix(0.087, -0.996, 0.996, 0.087, -5931.182, 4536.627)" fill="#f25c6a"/>
    <path id="路径_340" data-name="路径 340" d="M.429,15.121a11.956,11.956,0,1,1,23.48-2.843A33.859,33.859,0,0,0,.429,15.121Z" transform="matrix(0.087, -0.996, 0.996, 0.087, -5935.834, 4497.283)" fill="#007b9c"/>
    <path id="路径_345" data-name="路径 345" d="M5.665,19.6A11.939,11.939,0,0,1,4.619,0,57.138,57.138,0,0,1,19.19,18.955,11.958,11.958,0,0,1,5.665,19.6Z" transform="matrix(0.087, -0.996, 0.996, 0.087, -5930.282, 4448.958)" fill="#f25c6a"/>
    <path id="路径_344" data-name="路径 344" d="M18.2,18.266A11.923,11.923,0,0,1,0,20.826c.446-.623.9-1.235,1.311-1.9A33.628,33.628,0,0,0,6.355.119,11.963,11.963,0,0,1,18.2,18.266Z" transform="matrix(0.087, -0.996, 0.996, 0.087, -5888.231, 4457.915)" fill="#fbdd0b"/>
    <path id="路径_341" data-name="路径 341" d="M1.789,5.665a11.962,11.962,0,0,1,21.7,9.486A57.493,57.493,0,0,1,.38,14.941,11.917,11.917,0,0,1,1.789,5.665Z" transform="matrix(0.087, -0.996, 0.996, 0.087, -5849.444, 4501.372)" fill="#007b9c"/>
    <path id="路径_338" data-name="路径 338" d="M22.308,17.948c-.059.1-.108.208-.17.308A11.965,11.965,0,1,1,11.9,0,33.692,33.692,0,0,0,22.308,17.948Z" transform="matrix(0.087, -0.996, 0.996, 0.087, -5886.287, 4530.695)" fill="#fbdd0b"/>
    <path id="路径_339" data-name="路径 339" d="M14.834,44.87C-9.821,28.284,3.7,0,3.7,0h0a33.8,33.8,0,1,0,63.97,1.381C83.607,41.626,37.77,60.3,14.834,44.87Z" transform="matrix(0.087, -0.996, 0.996, 0.087, -5904.115, 4519.654)" fill="#892518" opacity="0.25"/>
    <path id="路径_336" data-name="路径 336" d="M.138,61.461a57.528,57.528,0,0,1,102.4-39.752l.027.051C23.406-28.526.511,59.994.138,61.461Z" transform="matrix(0.087, -0.996, 0.996, 0.087, -5951.825, 4537.616)" fill="#892518" opacity="0.25"/>
    <g id="组_1575" data-name="组 1575" transform="translate(-5287.068 4340.619) rotate(90)">
      <path id="路径_269" data-name="路径 269" d="M4.5,18.909S-6.539,29.727,5.965,50.866L18,36.623,7.278,54.414s10.665,16.448,18.991,22.5c0,0,39.665-51.295,37.754-76.917C64.023,0,19.946.917,4.5,18.909Z" transform="translate(0 7.575)" fill="#156049"/>
      <path id="路径_270" data-name="路径 270" d="M261.946,99.406S83.217-61.943,0,26.483c0,0,30.046-1.179,61.38,17.617l27.71-8.542L66.229,46.613,74.69,50.1l34.9-5.525L80.375,53.283,100.007,62.7l36.42-5.663L106.494,67.625S204.664,141.08,261.946,99.406Z" transform="translate(4.498 0)" fill="#0ca576"/>
    </g>
    <g id="组_1579" data-name="组 1579" transform="matrix(0.087, -0.996, 0.996, 0.087, -6086.955, 4625.677)">
      <path id="路径_271" data-name="路径 271" d="M53.376,43.779s13.089.49,35.072-10.052l-18.543-.043,29.211-4.8,12.2-10.417L92.625,21.814l24.941-8.08L127.451,0,77,6.163,66.559,15l7.134-9.451L68.032,4.49,52.445,22.615l10.4-19.093L0,12.584,13.281,33.666S37.405,46.474,53.376,43.779Z" transform="translate(178.616 91.667)" fill="#156049"/>
      <path id="路径_272" data-name="路径 272" d="M39.8,11.705s21.964,2.635,55.71,28.46,61.713,48.618,61.713,48.618-10.076,6.907-19.775,6.562c0,0,14.8,1.786,24.613-3.705l5.517,4.447-12.555,4.492,16.92-1.724s43.483,36.43,60.051,36.592c0,0-173.4,16.2-231.992-135.447C0,0,23.375,6.658,39.8,11.705Z" transform="translate(0 0)" fill="#0ca576"/>
    </g>
    <g id="组_1574" data-name="组 1574" transform="matrix(-0.105, 0.995, -0.995, -0.105, -4896.223, 4404.738)">
      <path id="路径_276" data-name="路径 276" d="M225.139,2.406a644.36,644.36,0,0,1-44.867,83.836l-2.048,3.242L179.5,76.177,174.99,94.46l-.085.132a536.079,536.079,0,0,1-35.156,47.983l-1.572,1.9-.283-14.742-4.273,20.08-.154.177A378.143,378.143,0,0,1,106.5,178.214l-1.724,1.62.27-3.407-.728,3.825-.223.2a286.773,286.773,0,0,1-23.348,19.371L78.9,201.2l2.223-12.491-5.774,15.009-.229.16c-3.242,2.265-6.262,4.275-9.231,6.143l-2.3,1.447,2.449-6.5-4.324,7.619-.208.123c-19.977,11.918-40.3,19.538-60.418,22.647L0,235.522l.034-1.1c.023-.742.731-18.513,15.341-47.584l.175-.348,21.391-6.607L17.919,181.92l.835-1.532a262.5,262.5,0,0,1,17.454-27.581l.187-.261,29.2-8.091-21.627-1.981,1.05-1.324c3.25-4.1,6.766-8.316,10.452-12.538l.24-.275,14.6-1.39-10.719-3,1-1.1c18.9-20.775,41.838-41.343,68.17-61.133l.181-.136,13.952-2.209-10.422-.421,2.106-1.546a794.229,794.229,0,0,1,89.282-56.16L226.15,0ZM137.773,57.339l14.418.583.106,1.816-22.619,3.583c-25.7,19.33-48.144,39.4-66.733,59.669l17.34,4.845-23.676,2.254c-3.184,3.655-6.24,7.306-9.1,10.874l28.214,2.584-38.215,10.59a262.778,262.778,0,0,0-16.3,25.595l24.944-2.673.367,1.782-29.679,9.166C4.607,212.448,2.342,229.05,1.944,233.365c19.441-3.17,39.087-10.6,58.417-22.106l9.859-17.371,1.651.773-4.645,12.333c2.135-1.385,4.32-2.856,6.617-4.457l9-23.39,1.754.488-3.086,17.34c7.1-5.357,14.192-11.288,21.127-17.658l3.75-19.7,1.809.244-1.221,15.386c8.377-7.982,16.764-16.812,24.957-26.279l7.488-35.178.494,25.705a537.8,537.8,0,0,0,33.379-45.779L180.7,63.627l1.8.305L180.775,82A657.25,657.25,0,0,0,222.393,4.135,792.754,792.754,0,0,0,137.773,57.339Z" transform="translate(0 13.578)" fill="#00543c"/>
      <g id="组_1551" data-name="组 1551" transform="translate(18.332 0)">
        <path id="路径_277" data-name="路径 277" d="M78.776,83.732c-21.732,28.362-37.588,54.153-49.111,77.078H44.233L26.29,167.715q-3.649,7.65-6.675,14.849l24.618-4.508L14.284,196.122a260.449,260.449,0,0,0-9.356,31.152l24.933-9.935L3.416,234.366c-6.281,32.1-1.978,49.562-1.978,49.562,19.557-8.871,36.736-22.022,51.809-37.868l4.879-19.618-1.4,15.867q3.7-4.074,7.208-8.366l2.4-25.226,1.917,19.833a285.193,285.193,0,0,0,17.22-24.86l-1.714-20.281,3.422,17.482a375.884,375.884,0,0,0,18.331-34.358l-1.772-28.191,5.818,19.378a535.066,535.066,0,0,0,20.91-55.579l-.962-31.135,3.879,21.664C148.83,41.092,154.006,0,154.006,0A788.256,788.256,0,0,0,83.213,78.025L99.806,74.1Z" transform="translate(0)" fill="#05b785"/>
        <path id="路径_278" data-name="路径 278" d="M145.561,1.35,111.809,63.563l3.385,50.964a.915.915,0,0,1-.852.973.928.928,0,0,1-.973-.852l-3.194-48.074L67.726,144.816l4.193,50.761a.915.915,0,0,1-.837.987.927.927,0,0,1-.986-.837l-3.962-47.974L1.717,266.486a.914.914,0,1,1-1.606-.872l26.113-48.132-23.07,11.6a.914.914,0,1,1-.822-1.634L27.75,214.667l48.176-88.8-34.259,8.5a.914.914,0,1,1-.442-1.775l35.882-8.9L143.954.478a.914.914,0,1,1,1.606.872Z" transform="translate(2.989 11.108)" fill="#099368"/>
      </g>
    </g>
    <g id="组_1578" data-name="组 1578" transform="matrix(0.087, -0.996, 0.996, 0.087, -5976.019, 4625.465)">
      <path id="路径_279" data-name="路径 279" d="M191.547,265.769l-.328-.209-5.439-27.035.133,23.558-1.44-.986a305.638,305.638,0,0,1-29.9-23.458l-.24-.213-6.076-35.55-4.942,25.369-1.211-1.179c-4.376-4.258-8.85-8.827-13.3-13.582l-.249-.266.11-17.839-4.937,12.6-.99-1.1c-21.848-24.339-42.986-53.329-62.825-86.165l-.117-.195-1-17.91-1.866,13.111L55.6,112.461C36.3,79.664,17.929,42.636,1.012,2.406L0,0,2.292,1.249c.424.231,43,23.559,91.87,61.837l3.019,2.364-16.67-3.316,22.427,8,.147.052.121.1a623.783,623.783,0,0,1,51.468,46.371l1.732,1.754-18.02-1.477,23.756,7.629.224.072.162.17a439.894,439.894,0,0,1,29.534,34.558l1.437,1.879-6.25-1.138,6.947,2.067.181.242a334.324,334.324,0,0,1,19.7,29.323l1.176,1.976-15.362-4.369,18.079,9.144.136.244c2.246,4.028,4.218,7.761,6.03,11.414l1.208,2.435-8.575-4.261,9.862,7,.1.219c11.457,24.534,17.895,48.969,19.135,72.627l.058,1.1-1.091-.144C244.62,289.089,223.491,286.1,191.547,265.769Zm33.627-49.24-19.007-13.491.936-1.564,14.157,7.037c-1.419-2.778-2.943-5.628-4.622-8.645l-26.091-13.2.663-1.7,20.1,5.719c-5.433-8.975-11.554-18.027-18.22-26.941l-22.435-6.674.424-1.775,18.077,3.293c-8.338-10.761-17.682-21.637-27.8-32.362l-38.677-12.421,28.95,2.375a625.556,625.556,0,0,0-49.455-44.38L68.143,59.667l.485-1.757,21.363,4.249A764.64,764.64,0,0,0,3.73,4.153,923.464,923.464,0,0,0,55.85,109.278l2.43-17.07,1.818.078,1.5,26.673c19.447,32.166,40.135,60.613,61.513,84.589l7.447-19-.166,26.953c3.937,4.2,7.892,8.255,11.778,12.072l6.206-31.862,7.653,44.773A305.709,305.709,0,0,0,184.064,258.6l-.168-29.512,1.81-.186,7.15,35.537c27.293,17.308,46.454,21.788,51.116,22.679C242.6,264.12,236.282,240.379,225.174,216.529Z" transform="translate(0 19.593)" fill="#00543c"/>
      <g id="组_1553" data-name="组 1553" transform="translate(33.633 0)">
        <path id="路径_280" data-name="路径 280" d="M33.788,126.7c13.832,39.257,28.9,71.146,43.922,96.984l9.275-14.211-4.688,21.9q5.139,8.43,10.236,15.966l11.276-26.886-1.444,40.718a303.366,303.366,0,0,0,24.433,28.96l6.182-30.648-.227,36.639c27.313,26.564,47.088,33.486,47.088,33.486,3.8-24.726,1.906-49.857-3.955-74.65L159.855,237.7l14.59,11.465c-1.081-4.132-2.284-8.252-3.572-12.359l-23.081-18.4,20.567,10.757a332.339,332.339,0,0,0-13.287-32.626L134.2,185.3l19.232,7.792a438.119,438.119,0,0,0-21.845-39.758l-28.63-16.221,22.607,6.662a622.991,622.991,0,0,0-40.9-55.784L53.669,69.107l23.6,10.009C36.792,31.212,0,0,0,0,8.9,45.441,19.5,84.741,31.042,118.737l6.738-18.684Z" transform="translate(0 0)" fill="#05b785"/>
        <path id="路径_281" data-name="路径 281" d="M2,.559,41.2,73.094,93.073,102.24a1.066,1.066,0,0,1,.407,1.45,1.082,1.082,0,0,1-1.451.407L43.1,76.6l49.3,91.227,52.187,28.229a1.067,1.067,0,0,1,.43,1.445,1.08,1.08,0,0,1-1.445.43L94.249,171.255l74.813,138.434a1.065,1.065,0,0,1-1.874,1.012l-30.327-56.118-3.376,29.888a1.065,1.065,0,1,1-2.117-.239l3.72-32.93L79.137,147.77,65.616,186.6a1.065,1.065,0,0,1-2.012-.7L77.765,145.23.129,1.572A1.065,1.065,0,1,1,2,.559Z" transform="translate(6.682 12.695)" fill="#099368"/>
      </g>
    </g>
    <path id="路径_329" data-name="路径 329" d="M64.3,25.35S24.076-9.544,0,2.546C0,2.546,11.886,22.655,64.3,25.35Z" transform="translate(-5258.183 4411.841) rotate(90)" fill="#ffb94e"/>
    <path id="路径_343" data-name="路径 343" d="M0,0S31.084,7.859,33.4,23.913C33.4,23.913,19.375,24.965,0,0Z" transform="matrix(0.087, -0.996, 0.996, 0.087, -5826.577, 4474.794)" fill="#f25c6a"/>
    <path id="路径_331" data-name="路径 331" d="M0,0S79.8,20.178,85.746,61.393C85.746,61.393,49.741,64.091,0,0Z" transform="matrix(0.087, -0.996, 0.996, 0.087, -5744.359, 4586.148)" fill="#db9537"/>
    <path id="路径_342" data-name="路径 342" d="M122.757,0c21.207,28.823,1.74,66.5-2.738,74.344q-1.664,5.566-3.822,11.21c9.181-13.894,25.823-31.863,50.46-31.794-7.394,34.707-47.864,45.3-57.156,47.292-3.517,7.333-7.5,14.646-11.757,21.834,10.86-9.807,37.978-30.068,66.988-19.168-19.081,30-60.828,25.726-70.124,24.357-4.271,6.93-8.769,13.715-13.349,20.251,7.87-5.559,42.971-28.015,73.445-10-25.291,27.644-68.765,13.433-74.447,11.417-4.836,6.846-9.741,13.41-14.54,19.569,11.834-6.153,45.267-20.4,71.42-1.162-26.413,23.618-65.255,8.367-74.011,4.462q-1.477,1.867-2.934,3.682c-5.411,6.731-10.8,13.145-16,19.136,9.953-5.448,45.575-22.329,73.122-2.069-27.406,24.507-68.2,7.165-74.869,4.072-22.163,25.353-40.363,42.6-40.591,42.812a1.1,1.1,0,0,1-1.51-1.6c.491-.464,21.7-20.629,46.3-49.572-2.885-6.171-20.713-47.4,3.985-75.028,19.614,26.658,4.436,60.888-1.5,72.086,6.953-8.272,14.125-17.2,21.141-26.552C67.983,154.77,48.9,112.417,74.105,84.22c19.925,27.081,3.946,61.977-1.772,72.6,7.077-9.562,13.946-19.532,20.223-29.662-2.7-5.746-20.928-47.329,3.932-75.14,17.049,23.172,7.81,52.066,1.2,66.582,8.781-15.154,15.984-30.5,20.333-45.225C113.734,63.513,99.676,25.82,122.757,0Z" transform="translate(-5696.85 4590.688) rotate(-90)" fill="#db9537"/>
    <path id="路径_347" data-name="路径 347" d="M142.849,0c24.678,33.541,2.025,77.386-3.186,86.513q-1.936,6.477-4.448,13.045c10.684-16.168,30.049-37.079,58.719-37-8.6,40.387-55.7,52.714-66.511,55.032-4.093,8.533-8.724,17.044-13.681,25.408,12.638-11.413,44.193-34.99,77.952-22.305-22.2,34.911-70.784,29.937-81.6,28.344C105.123,157.1,99.889,165,94.559,172.6c9.158-6.468,50-32.6,85.466-11.636-29.431,32.169-80.02,15.632-86.632,13.285-5.627,7.967-11.336,15.6-16.92,22.772,13.771-7.16,52.676-23.735,83.11-1.352-30.736,27.484-75.936,9.737-86.124,5.192q-1.718,2.172-3.414,4.285c-6.3,7.832-12.57,15.3-18.619,22.268,11.582-6.339,53.034-25.984,85.09-2.408-31.892,28.518-79.359,8.337-87.123,4.739-25.79,29.5-46.969,49.569-47.234,49.819A1.28,1.28,0,0,1,.4,277.706c.571-.539,25.248-24.006,53.883-57.686-3.357-7.182-24.1-55.155,4.637-87.308,22.825,31.021,5.162,70.853-1.743,83.884,8.091-9.625,16.437-20.013,24.6-30.9C79.111,180.1,56.905,130.817,86.235,98c23.187,31.514,4.591,72.12-2.063,84.483,8.235-11.127,16.229-22.729,23.533-34.517-3.146-6.687-24.353-55.075,4.576-87.438,19.839,26.964,9.088,60.588,1.4,77.48,10.219-17.634,18.6-35.492,23.661-52.628C132.349,73.908,115.991,30.046,142.849,0Z" transform="matrix(0.966, -0.259, 0.259, 0.966, -5365.149, 4379.628)" fill="#db9537"/>
    <g id="组_1577" data-name="组 1577" transform="translate(-5565.607 4404.769) rotate(-21)">
      <path id="路径_304" data-name="路径 304" d="M0,1.967C1.877.753,2.928,0,2.928,0A17.829,17.829,0,0,1,0,1.967Z" transform="translate(144.509 156.376)" fill="#00543c"/>
      <path id="路径_305" data-name="路径 305" d="M0,3.5A17.807,17.807,0,0,1,.387,0S.206,1.275,0,3.5Z" transform="translate(0.605 80.972)" fill="#00543c"/>
      <path id="路径_306" data-name="路径 306" d="M.605,84.475c-.151,9.756,6.974,22.877,20.455,52.612,12.168,26.839,9.386,47.115,7.818,54.067,2.962-5.261,6.259-10.9,9.863-16.792a158.7,158.7,0,0,0-13.934-49.313c-10.129-21.091-6.34-50.035-4.62-59.9-.932,9.713,5.119,23.362,16.175,54.081,9.091,25.259,6.251,44.092,4.07,52.391,4.066-6.548,8.5-13.365,13.288-20.275-4.121-9.622-24.734-59.7-19.6-87.412C39.81,33.188,48.239,41.495,48.239,41.495l6.052,109.025c3.474-4.993,7.128-10.027,10.953-15.039C62.561,123.763,46.573,47.566,78.031,21.012c0,0-3.229,54.453-10.359,70.675-6.119,13.921-3.261,37.3-2.327,43.662,4.829-6.321,9.927-12.6,15.282-18.71-2.357-8.189-9.038-33.87-5.317-50.267,4.474-19.717,29.5-52.771,29.5-52.771s1.334,26.2-8.738,46.841c-8.061,16.522-12.613,44.264-14.111,54.686a274.048,274.048,0,0,1,20.942-21.253C104.771,79.77,114.987,8.143,131.115.492c15.921-7.553-19.037,74.109-26.963,92.263,4.007-3.574,8.112-6.991,12.315-10.2a1.294,1.294,0,0,1,1.808.241c.009.012.01.026.018.037,14.713-7.653,58.483-29.17,72.782-22.148,14.975,7.354-54.254,20.531-73.05,23.926-5.181,3.961-10.214,8.235-15.094,12.737a61.654,61.654,0,0,1,28.214-7.538c22.8-.7,49.811,11.328,67.766.178,0,0-26.259,24.479-54.008,15.147-22.01-7.4-39.982-4.883-46.479-3.524-5.852,5.678-11.463,11.667-16.818,17.828,6.533-4.373,18.09-10.374,31.5-9.592,20.827,1.213,48.128,17.1,65.35,11.1,0,0-32.675,12.044-59.735,4.68-20.709-5.636-34.785-3.73-40.257-2.525-3.835,4.545-7.532,9.164-11.079,13.807a75.612,75.612,0,0,1,27.885-7.419c20-1.463,60.146,5.677,73.9-1.493,0,0-32.518,22.108-56.467,18.041-21.054-3.576-37.058-9.56-46.316-7.816-4.335,5.722-8.443,11.468-12.314,17.14,6.051-3.4,19.042-9.344,34.117-7.977,20.865,1.892,63.138-2.863,79.644-9.506,0,0-14.71,18.046-47.8,20.175-31.449,2.024-50.273-5.38-66.977-1.2-6.138,9.071-11.657,17.919-16.5,26.13,5.077-4.395,21.834-16.709,51.855-18.394,32.592-1.829,47.52-1.594,56.1-6.245-8.408,5.439-33.563,20.237-56.937,19.156a158.15,158.15,0,0,0-51.748,6.732c-3.051,5.2-5.824,10.133-8.3,14.686,6.575-3.607,23.751-12.266,39.193-13.508,19.582-1.575,61.785,4.564,79.8-4.343,0,0-27.92,21.577-60.735,17.77a226.271,226.271,0,0,0-58.913,1.29c-9,16.61-13.958,27.873-14.1,28.2a1.289,1.289,0,0,1-2.364-1.029c.159-.366,6.4-14.521,17.606-34.581a158.254,158.254,0,0,0-18-48.9C-1.779,123.6-.321,94.448.605,84.475Z" transform="translate(0)" fill="#00543c"/>
      <path id="路径_307" data-name="路径 307" d="M0,3.46A17.82,17.82,0,0,1,.666,0S.385,1.256,0,3.46Z" transform="translate(20.186 61.687)" fill="#00543c"/>
    </g>
    <g id="组_1571" data-name="组 1571" transform="translate(-4744.714 4384.645) rotate(90)">
      <path id="路径_308" data-name="路径 308" d="M2.89,2.024C1.037.773,0,0,0,0A17.769,17.769,0,0,0,2.89,2.024Z" transform="translate(50.181 156.065)" fill="#00543c"/>
      <path id="路径_309" data-name="路径 309" d="M.319,3.509A17.847,17.847,0,0,0,0,0S.155,1.278.319,3.509Z" transform="translate(198.057 83.509)" fill="#00543c"/>
      <path id="路径_310" data-name="路径 310" d="M198.376,87.018c-.038,9.757-7.416,22.738-21.469,52.206-12.684,26.6-10.3,46.925-8.862,53.9-2.86-5.317-6.047-11.023-9.537-16.98a158.683,158.683,0,0,1,14.886-49.034c10.536-20.892,7.308-49.9,5.777-59.8.743,9.729-5.57,23.259-17.218,53.758-9.578,25.079-7.1,43.963-5.082,52.3-3.938-6.626-8.243-13.526-12.893-20.527,4.307-9.54,25.885-59.215,21.29-87.017-5.1-30.848-13.686-22.706-13.686-22.706l-8.161,108.887c-3.376-5.059-6.933-10.163-10.66-15.248,2.909-11.663,20.368-87.537-10.57-114.695,0,0,2.175,54.505,8.99,70.862,5.848,14.037,2.539,37.36,1.481,43.7-4.706-6.414-9.682-12.793-14.917-19,2.515-8.142,9.692-33.689,6.289-50.154-4.092-19.8-28.477-53.332-28.477-53.332s-1.84,26.166,7.83,47c7.739,16.673,11.755,44.5,13.049,54.949A274.148,274.148,0,0,0,95.909,94.438C94.319,80.3,85.491,8.489,69.513.527,53.741-7.332,87.112,74.99,94.686,93.294c-3.937-3.651-7.975-7.148-12.115-10.44a1.292,1.292,0,0,0-1.812.207c-.009.011-.01.026-.019.037C66.178,75.163,22.832,52.8,8.4,59.546-6.713,66.61,62.248,81.123,80.975,84.881c5.1,4.06,10.053,8.43,14.845,13.026a61.65,61.65,0,0,0-28.063-8.082C44.979,88.684,17.736,100.187,0,88.693c0,0,25.781,24.982,53.705,16.188,22.149-6.975,40.068-4.11,46.539-2.625,5.741,5.789,11.235,11.886,16.469,18.15-6.447-4.5-17.886-10.722-31.313-10.2-20.847.81-48.449,16.171-65.553,9.836,0,0,32.435,12.673,59.633,5.835,20.814-5.233,34.851-3.056,40.3-1.746,3.747,4.618,7.352,9.308,10.81,14.019a75.636,75.636,0,0,0-27.736-7.958c-19.964-1.85-60.244,4.512-73.858-2.923,0,0,32.084,22.733,56.106,19.13,21.118-3.167,37.236-8.842,46.459-6.918,4.223,5.806,8.22,11.629,11.98,17.375-5.984-3.52-18.858-9.71-33.957-8.635-20.9,1.488-63.07-4.084-79.446-11.045,0,0,14.358,18.326,47.405,21.1,31.4,2.632,50.368-4.406,66.987.1,5.962,9.188,11.308,18.141,15.992,26.443-4.991-4.493-21.507-17.128-51.49-19.393-32.549-2.459-47.48-2.514-55.965-7.33,8.3,5.6,33.166,20.883,56.556,20.255a158.161,158.161,0,0,1,51.608,7.731c2.949,5.262,5.626,10.244,8.019,14.844-6.5-3.734-23.509-12.723-38.925-14.264-19.548-1.954-61.862,3.368-79.7-5.885,0,0,27.5,22.113,60.381,18.942a226.253,226.253,0,0,1,58.877,2.429c8.673,16.781,13.416,28.138,13.551,28.465a1.29,1.29,0,0,0,1.5.759,1.1,1.1,0,0,0,.178-.059,1.287,1.287,0,0,0,.7-1.683c-.152-.368-6.115-14.642-16.934-34.916a158.282,158.282,0,0,1,18.939-48.543C200,126.183,199.108,97.007,198.376,87.018Z" transform="translate(0 0)" fill="#00543c"/>
      <path id="路径_311" data-name="路径 311" d="M.6,3.471A17.8,17.8,0,0,0,0,0S.258,1.261.6,3.471Z" transform="translate(178.573 63.843)" fill="#00543c"/>
    </g>
    <g id="组_1581" data-name="组 1581" transform="translate(143.376 -9.59)">
      <path id="路径_322" data-name="路径 322" d="M262.547,126.656l-10.783,39.151-14.28,38.015-31.761,25.311-33.873,22.405-40.576,1.775L90.7,251.538,56.824,229.133,25.063,203.822l-14.28-38.015L0,126.656l10.783-39.15,14.28-38.015L56.824,24.179,90.7,1.775,131.274,0l40.576,1.775,33.873,22.4,31.761,25.312,14.28,38.015Z" transform="translate(-4698.518 4355.235) rotate(90)" fill="#ffb94e"/>
      <path id="路径_324" data-name="路径 324" d="M205.784,71.864,194.012,40.431l-25.649-20.44-27.97-18.54L107.245,0,74.1,1.451l-27.361,18.1L20.478,40.431,8.946,71.129,0,103.474l8.707,31.611,11.771,31.433,25.647,20.439L74.1,205.5l33.148,1.451,33.148-1.451,27.36-18.1,26.258-20.881,11.532-30.7,8.944-32.345Zm-16.328,58.322-9.742,25.935-21.675,17.273-23.108,15.284-27.685,1.21-27.685-1.21L56.453,173.392,34.78,156.12l-9.744-25.935L17.68,103.473l7.357-26.712,9.742-25.934L56.453,33.554,79.562,18.268l27.685-1.21,27.685,1.21,23.108,15.284,21.675,17.274,9.742,25.934,7.356,26.712Z" transform="translate(-4721.7 4379.262) rotate(90)" fill="#fdd8a3"/>
      <path id="路径_323" data-name="路径 323" d="M138.167,131.664l.942-2.52.686-2.488H262.547L251.763,87.506,237.483,49.49l-99.315,72.157h0l-2.106-1.672-2.155-1.426L171.849,1.775,131.274,0,90.7,1.775l37.942,116.774-2.241,1.489-2.018,1.608h0L25.063,49.491,10.783,87.506,0,126.656H122.752l.719,2.593.908,2.416L25.063,203.822l31.761,25.312,33.873,22.4,37.942-116.774h0l2.634.114,2.633-.114h0l37.942,116.774,33.873-22.4,31.761-25.312-99.317-72.157Zm-5.04.7h0l-1.853.081-1.854-.081h0l-1.5-.989-1.493-1.19h0l-.637-1.682-.506-1.841h0l.472-1.736.673-1.787h0l1.406-1.126,1.591-1.054h0l1.8-.082,1.905.083h0l1.5.99,1.493,1.189h0l.636,1.682.507,1.841h0l-.474,1.736-.671,1.788h0l-1.4,1.126Z" transform="translate(-4698.518 4355.235) rotate(90)" fill="#db9537"/>
      <g id="组_1570" data-name="组 1570" transform="translate(-4721.7 4379.263) rotate(90)">
        <path id="路径_317" data-name="路径 317" d="M17.677,63.039l7.358-26.712,9.742-25.934,0,0L20.477,0,8.946,30.695,0,63.039H17.677Z" transform="translate(0 40.435)" fill="#eaae68"/>
        <path id="路径_318" data-name="路径 318" d="M59.084,32.556,35.975,17.271,14.3,0,0,10.392v0L25.649,30.835,53.619,49.374Z" transform="translate(20.477 156.122)" fill="#eaae68"/>
        <path id="路径_319" data-name="路径 319" d="M59.082,10.395v0L44.781,0,23.108,17.271,0,32.555H0L5.464,49.374l27.36-18.1Z" transform="translate(134.929 156.123)" fill="#eaae68"/>
        <path id="路径_320" data-name="路径 320" d="M0,10.394,9.746,36.328,17.1,63.04H34.78L26.074,31.43,14.3,0,0,10.392Z" transform="translate(179.709 40.434)" fill="#eaae68"/>
        <path id="路径_321" data-name="路径 321" d="M5.465,18.27,33.15,17.059,60.834,18.27,66.3,1.451h0L33.15,0,0,1.451H0Z" transform="translate(74.095)" fill="#eaae68"/>
      </g>
    </g>
    <g id="组_1582" data-name="组 1582" transform="translate(115)">
      <path id="路径_326" data-name="路径 326" d="M2.89,2.024C1.037.773,0,0,0,0A17.771,17.771,0,0,0,2.89,2.024Z" transform="translate(-5031.579 4450.368) rotate(90)" fill="#04110d"/>
      <path id="路径_327" data-name="路径 327" d="M108.16,106.1c.513-.537,1.019-1.079,1.513-1.634.127-.143.25-.289.375-.433s.261-.3.389-.45l.066-.076c.367-.43.732-.862,1.089-1.3.076-.093.147-.189.223-.283.139-.174.275-.349.411-.524l.133-.17c.352-.453.7-.908,1.042-1.371l.037-.051c.165-.226.324-.455.485-.683l.19-.268q.727-1.033,1.412-2.095l.238-.37q.65-1.023,1.263-2.072c.094-.161.187-.323.279-.485q.576-1.009,1.116-2.039c.105-.2.207-.4.309-.6q.5-.99.976-2c.112-.241.22-.486.33-.73.29-.645.572-1.292.841-1.947.117-.284.226-.572.338-.859.245-.626.486-1.254.712-1.89.117-.33.225-.664.337-1,.2-.605.405-1.21.591-1.823.113-.376.216-.756.323-1.136.164-.581.329-1.162.476-1.751.107-.425.2-.856.3-1.284.126-.553.257-1.1.368-1.664.1-.481.175-.967.26-1.453.09-.517.188-1.033.266-1.555.082-.549.143-1.1.21-1.657.058-.469.124-.934.172-1.406.065-.655.105-1.317.15-1.977.026-.379.064-.756.083-1.137q.078-1.572.079-3.162c0-.951-.029-1.894-.071-2.835-.014-.3-.031-.608-.049-.912q-.059-.982-.149-1.955c-.029-.328-.054-.658-.089-.985q-.126-1.179-.3-2.346c-.079-.544-.17-1.082-.262-1.622q-.07-.409-.145-.815A62.777,62.777,0,0,0,62.77,0c-.8,0-1.593.031-2.385.06h-.008q-.883.033-1.759.091c-.135.009-.271.021-.406.031q-1.531.11-3.039.292c-.2.024-.4.05-.6.076q-1.421.185-2.821.433c-.2.035-.394.069-.59.105q-1.566.293-3.1.662c-.071.017-.144.032-.216.05q-.8.195-1.592.411c-.218.059-.432.123-.649.184q-1.26.358-2.5.764c-.273.091-.545.183-.816.276q-1.114.384-2.207.808c-.307.119-.614.239-.92.363-.5.2-.988.407-1.477.621q-.779.34-1.548.7-.61.287-1.211.586c-.456.226-.909.459-1.359.7q-.716.377-1.42.772-.613.343-1.216.7-.668.395-1.327.8-.693.432-1.374.881c-.3.2-.6.395-.9.6q-.88.6-1.739,1.236-.4.3-.8.6c-.586.445-1.166.9-1.735,1.364-.219.179-.432.363-.649.545q-.734.617-1.449,1.255c-.211.188-.422.376-.631.567q-.809.743-1.59,1.516c-.192.189-.385.378-.574.569q-.819.827-1.606,1.684-.269.292-.533.589c-.528.59-1.05,1.187-1.556,1.8-.14.168-.275.34-.413.51q-.68.835-1.332,1.7-1.167,1.539-2.238,3.15h0l-.032.05c-.682,1.028-1.329,2.08-1.951,3.149-.182.313-.364.624-.54.94q-.37.662-.726,1.334c-.183.346-.358.7-.535,1.045-.247.489-.493.979-.727,1.476q-.458.97-.884,1.956c-.173.4-.336.811-.5,1.218-.177.438-.352.877-.52,1.319-.153.4-.3.806-.447,1.213-.185.518-.358,1.041-.53,1.566-.108.33-.222.657-.325.989-.25.815-.482,1.637-.7,2.465-.087.331-.165.665-.247,1q-.218.885-.411,1.779c-.071.334-.143.666-.209,1Q.978,51.667.8,52.808c-.026.161-.058.32-.082.482C.574,54.2.461,55.125.362,56.052c-.03.282-.054.565-.08.848q-.1,1.053-.161,2.115c-.017.286-.036.571-.048.858C.029,60.834,0,61.8,0,62.771A62.466,62.466,0,0,0,11.841,99.444l.007.011q1.659,2.3,3.518,4.438l.179.207q1.8,2.05,3.762,3.938c.13.124.26.249.391.373q1.9,1.792,3.941,3.426c.219.175.44.347.661.519q.985.765,2,1.49c.285.2.569.41.858.61.39.27.784.532,1.181.794.34.224.684.442,1.028.659q.815.513,1.646,1,.644.38,1.3.746.533.3,1.072.583.794.422,1.6.821.6.295,1.2.576.8.377,1.622.733c.311.135.622.27.935.4.741.308,1.488.605,2.245.885.24.089.483.17.724.256q.945.337,1.9.644c.259.083.517.168.778.248q1.219.373,2.459.7c.227.059.455.113.683.17q1.081.27,2.174.5c.2.042.394.087.591.127.874.176,1.754.332,2.64.472.222.035.445.066.668.1.82.12,1.645.227,2.475.314.119.013.236.028.355.04.923.092,1.854.16,2.788.212.223.013.447.023.67.033.954.043,1.91.072,2.874.072q1.594,0,3.167-.08c.352-.017.7-.053,1.05-.077.694-.046,1.388-.09,2.075-.158.421-.042.835-.1,1.253-.153.61-.073,1.221-.142,1.826-.232.449-.067.891-.153,1.336-.229.566-.1,1.134-.19,1.7-.3.462-.092.918-.2,1.376-.3.534-.12,1.07-.236,1.6-.369.472-.119.937-.253,1.405-.382.506-.14,1.012-.277,1.512-.43.477-.145.948-.3,1.421-.461s.96-.315,1.434-.485.956-.357,1.433-.54c.454-.176.909-.35,1.358-.535.484-.2.961-.41,1.438-.622.43-.19.858-.38,1.284-.581.485-.228.965-.465,1.443-.706.4-.2.8-.405,1.2-.615.488-.258.97-.525,1.451-.8.374-.211.747-.423,1.116-.642q.734-.433,1.455-.888.52-.326,1.032-.662.735-.483,1.456-.984.474-.33.943-.67.739-.535,1.464-1.09c.283-.218.562-.439.842-.662.5-.395.988-.8,1.472-1.206.25-.211.495-.427.741-.642.5-.437.995-.878,1.48-1.33.213-.2.421-.4.631-.6.5-.484,1-.971,1.494-1.471C107.821,106.463,107.989,106.282,108.16,106.1Z" transform="translate(-5038.495 4410.215) rotate(90)" fill="#04110d" opacity="0.15"/>
      <circle id="椭圆_10" data-name="椭圆 10" cx="62.771" cy="62.771" r="62.771" transform="translate(-5146.829 4411.176) rotate(14)" fill="#fff"/>
      <g id="组_1572" data-name="组 1572" transform="translate(-5038.555 4434.506) rotate(90)">
        <path id="路径_252" data-name="路径 252" d="M60.294.024C33.6-.747,0,17.474,0,17.474s34.127,4.334,45.785,42.918A62.533,62.533,0,0,0,62.771,17.474,62.776,62.776,0,0,0,60.294.024Z" transform="translate(53.107 45.237)" fill="#f25c6a"/>
        <path id="路径_253" data-name="路径 253" d="M50.384,62.711S43.028,29.639,48,0A62.672,62.672,0,0,0,0,25.271C19.167,46.7,50.384,62.711,50.384,62.711Z" transform="translate(2.723 0)" fill="#007b9c"/>
        <path id="路径_254" data-name="路径 254" d="M53.107,0C43.338,18.019,22.016,27.977,0,33.448A62.713,62.713,0,0,0,53.107,62.771c.971,0,1.934-.029,2.894-.073C68.139,27.74,53.107,0,53.107,0Z" transform="translate(0 62.711)" fill="#ffb94e"/>
      </g>
      <path id="路径_328" data-name="路径 328" d="M73.105,66.917A62.771,62.771,0,0,1,10.334,4.145c0-1.394.061-2.774.151-4.145A62.765,62.765,0,1,0,125.391,38.875,62.707,62.707,0,0,1,73.105,66.917Z" transform="translate(-5066.537 4424.842) rotate(90)" fill="#393590" opacity="0.25"/>
    </g>
  </g>
</svg>
